<mxfile host="app.diagrams.net" modified="2023-09-24T01:12:33.173Z" agent="Mozilla/5.0 (Windows NT 10.0; Win64; x64) AppleWebKit/537.36 (KHTML, like Gecko) Chrome/116.0.0.0 Safari/537.36" etag="kShvnIeKiPU5FXRAZ5bw" version="21.8.1" type="google">
  <diagram name="Page-1" id="2YBvvXClWsGukQMizWep">
    <mxGraphModel grid="1" page="1" gridSize="10" guides="1" tooltips="1" connect="1" arrows="1" fold="1" pageScale="1" pageWidth="850" pageHeight="1100" math="0" shadow="0">
      <root>
        <mxCell id="0" />
        <mxCell id="1" parent="0" />
        <mxCell id="QOd5lDTDU85s1vdmRcAn-2" value="&lt;i&gt;this&lt;/i&gt; : &lt;b&gt;Tamagotchi&lt;/b&gt;" style="shape=umlLifeline;perimeter=lifelinePerimeter;whiteSpace=wrap;html=1;container=0;dropTarget=0;collapsible=0;recursiveResize=0;outlineConnect=0;portConstraint=eastwest;newEdgeStyle={&quot;edgeStyle&quot;:&quot;elbowEdgeStyle&quot;,&quot;elbow&quot;:&quot;vertical&quot;,&quot;curved&quot;:0,&quot;rounded&quot;:0};" vertex="1" parent="1">
          <mxGeometry x="152.26" y="-410" width="136" height="270" as="geometry" />
        </mxCell>
        <mxCell id="QOd5lDTDU85s1vdmRcAn-3" value="" style="html=1;points=[];perimeter=orthogonalPerimeter;outlineConnect=0;targetShapes=umlLifeline;portConstraint=eastwest;newEdgeStyle={&quot;edgeStyle&quot;:&quot;elbowEdgeStyle&quot;,&quot;elbow&quot;:&quot;vertical&quot;,&quot;curved&quot;:0,&quot;rounded&quot;:0};" vertex="1" parent="QOd5lDTDU85s1vdmRcAn-2">
          <mxGeometry x="63" y="70" width="10" height="40" as="geometry" />
        </mxCell>
        <mxCell id="QOd5lDTDU85s1vdmRcAn-4" value="" style="html=1;points=[];perimeter=orthogonalPerimeter;outlineConnect=0;targetShapes=umlLifeline;portConstraint=eastwest;newEdgeStyle={&quot;edgeStyle&quot;:&quot;elbowEdgeStyle&quot;,&quot;elbow&quot;:&quot;vertical&quot;,&quot;curved&quot;:0,&quot;rounded&quot;:0};" vertex="1" parent="QOd5lDTDU85s1vdmRcAn-2">
          <mxGeometry x="63" y="140" width="10" height="60" as="geometry" />
        </mxCell>
        <mxCell id="QOd5lDTDU85s1vdmRcAn-7" value="&lt;i style=&quot;border-color: var(--border-color);&quot;&gt;estadoHambriento&lt;/i&gt;&amp;nbsp;:&amp;nbsp;&lt;br&gt;&lt;b style=&quot;border-color: var(--border-color);&quot;&gt;EstadoHambriento&lt;/b&gt;" style="shape=umlLifeline;perimeter=lifelinePerimeter;whiteSpace=wrap;html=1;container=0;dropTarget=0;collapsible=0;recursiveResize=0;outlineConnect=0;portConstraint=eastwest;newEdgeStyle={&quot;edgeStyle&quot;:&quot;elbowEdgeStyle&quot;,&quot;elbow&quot;:&quot;vertical&quot;,&quot;curved&quot;:0,&quot;rounded&quot;:0};" vertex="1" parent="1">
          <mxGeometry x="352.26" y="-410" width="177.74" height="190" as="geometry" />
        </mxCell>
        <mxCell id="QOd5lDTDU85s1vdmRcAn-8" value="" style="html=1;points=[];perimeter=orthogonalPerimeter;outlineConnect=0;targetShapes=umlLifeline;portConstraint=eastwest;newEdgeStyle={&quot;edgeStyle&quot;:&quot;elbowEdgeStyle&quot;,&quot;elbow&quot;:&quot;vertical&quot;,&quot;curved&quot;:0,&quot;rounded&quot;:0};" vertex="1" parent="QOd5lDTDU85s1vdmRcAn-7">
          <mxGeometry x="83.87" y="100" width="10" height="60" as="geometry" />
        </mxCell>
        <mxCell id="QOd5lDTDU85s1vdmRcAn-10" value="2:&lt;br&gt;&amp;nbsp;+ darDeComer()" style="html=1;verticalAlign=bottom;endArrow=block;edgeStyle=elbowEdgeStyle;elbow=horizontal;curved=0;rounded=0;" edge="1" parent="1" target="QOd5lDTDU85s1vdmRcAn-8">
          <mxGeometry x="-0.0066" relative="1" as="geometry">
            <mxPoint x="225.26" y="-305" as="sourcePoint" />
            <Array as="points">
              <mxPoint x="330" y="-305" />
            </Array>
            <mxPoint x="404.53999999999996" y="-304.97" as="targetPoint" />
            <mxPoint as="offset" />
          </mxGeometry>
        </mxCell>
        <mxCell id="QOd5lDTDU85s1vdmRcAn-20" value="1:&lt;br&gt;+darDeComer()" style="html=1;verticalAlign=bottom;startArrow=oval;startFill=1;endArrow=block;startSize=8;edgeStyle=elbowEdgeStyle;elbow=vertical;curved=0;rounded=0;" edge="1" parent="1">
          <mxGeometry width="60" relative="1" as="geometry">
            <mxPoint x="82.25999999999999" y="-329.7241379310344" as="sourcePoint" />
            <mxPoint x="212.26" y="-329.69" as="targetPoint" />
          </mxGeometry>
        </mxCell>
        <mxCell id="QOd5lDTDU85s1vdmRcAn-21" value="" style="html=1;verticalAlign=bottom;endArrow=open;dashed=1;endSize=8;edgeStyle=elbowEdgeStyle;elbow=vertical;curved=0;rounded=0;" edge="1" parent="1">
          <mxGeometry x="0.5" relative="1" as="geometry">
            <mxPoint x="747" y="150.27999999999997" as="sourcePoint" />
            <mxPoint x="747" y="150.62068965517255" as="targetPoint" />
            <mxPoint as="offset" />
          </mxGeometry>
        </mxCell>
        <mxCell id="QOd5lDTDU85s1vdmRcAn-23" value="" style="html=1;verticalAlign=bottom;endArrow=open;dashed=1;endSize=8;edgeStyle=elbowEdgeStyle;elbow=vertical;curved=0;rounded=0;exitX=0.473;exitY=0.574;exitDx=0;exitDy=0;exitPerimeter=0;" edge="1" parent="1">
          <mxGeometry x="-0.0028" relative="1" as="geometry">
            <mxPoint x="436.00101999999987" y="-259.94000000000005" as="sourcePoint" />
            <mxPoint x="230" y="-260" as="targetPoint" />
            <mxPoint as="offset" />
            <Array as="points" />
          </mxGeometry>
        </mxCell>
        <mxCell id="QOd5lDTDU85s1vdmRcAn-24" value="" style="html=1;verticalAlign=bottom;endArrow=open;dashed=1;endSize=8;edgeStyle=elbowEdgeStyle;elbow=horizontal;curved=0;rounded=0;exitX=0.478;exitY=0.722;exitDx=0;exitDy=0;exitPerimeter=0;" edge="1" parent="1" source="QOd5lDTDU85s1vdmRcAn-2">
          <mxGeometry x="-0.0028" relative="1" as="geometry">
            <mxPoint x="215.26" y="-199.92999999999995" as="sourcePoint" />
            <mxPoint x="80" y="-215" as="targetPoint" />
            <mxPoint as="offset" />
            <Array as="points" />
          </mxGeometry>
        </mxCell>
        <mxCell id="QOd5lDTDU85s1vdmRcAn-29" value="&lt;i style=&quot;border-color: var(--border-color);&quot;&gt;estadoFeliz&lt;/i&gt;" style="text;html=1;strokeColor=none;fillColor=none;align=center;verticalAlign=middle;whiteSpace=wrap;rounded=0;" vertex="1" parent="1">
          <mxGeometry x="287" y="-290" width="90" height="30" as="geometry" />
        </mxCell>
        <mxCell id="QOd5lDTDU85s1vdmRcAn-30" value="&lt;h3 style=&quot;&quot;&gt;Realizar un diagrama de secuencias para cuando el Tamagotchi está Hambriento y se le Da de&lt;br&gt;comer&amp;nbsp;&lt;/h3&gt;" style="text;html=1;strokeColor=none;fillColor=none;align=center;verticalAlign=middle;whiteSpace=wrap;rounded=0;" vertex="1" parent="1">
          <mxGeometry x="162.26" y="-560" width="670" height="80" as="geometry" />
        </mxCell>
        <mxCell id="QOd5lDTDU85s1vdmRcAn-31" value="&lt;h3 style=&quot;&quot;&gt;Realizar un diagrama de secuencias para cuando el Tamagotchi está Sediento y se le Pega&lt;br&gt;&lt;/h3&gt;" style="text;html=1;strokeColor=none;fillColor=none;align=center;verticalAlign=middle;whiteSpace=wrap;rounded=0;" vertex="1" parent="1">
          <mxGeometry x="165" y="20" width="670" height="80" as="geometry" />
        </mxCell>
        <mxCell id="QOd5lDTDU85s1vdmRcAn-32" value="&lt;h1 style=&quot;font-size: 21px;&quot;&gt;&lt;span style=&quot;background-color: initial; font-size: 21px;&quot;&gt;ENUNCIADO:&amp;nbsp;&lt;/span&gt;&lt;br style=&quot;font-size: 21px;&quot;&gt;&lt;/h1&gt;" style="text;html=1;strokeColor=none;fillColor=none;align=center;verticalAlign=middle;whiteSpace=wrap;rounded=0;fontSize=21;fontStyle=1" vertex="1" parent="1">
          <mxGeometry x="15" y="20" width="160" height="70" as="geometry" />
        </mxCell>
        <mxCell id="QOd5lDTDU85s1vdmRcAn-49" value="&lt;i&gt;this&lt;/i&gt; : &lt;b&gt;Tamagotchi&lt;/b&gt;" style="shape=umlLifeline;perimeter=lifelinePerimeter;whiteSpace=wrap;html=1;container=0;dropTarget=0;collapsible=0;recursiveResize=0;outlineConnect=0;portConstraint=eastwest;newEdgeStyle={&quot;edgeStyle&quot;:&quot;elbowEdgeStyle&quot;,&quot;elbow&quot;:&quot;vertical&quot;,&quot;curved&quot;:0,&quot;rounded&quot;:0};" vertex="1" parent="1">
          <mxGeometry x="177" y="140" width="136" height="270" as="geometry" />
        </mxCell>
        <mxCell id="QOd5lDTDU85s1vdmRcAn-50" value="" style="html=1;points=[];perimeter=orthogonalPerimeter;outlineConnect=0;targetShapes=umlLifeline;portConstraint=eastwest;newEdgeStyle={&quot;edgeStyle&quot;:&quot;elbowEdgeStyle&quot;,&quot;elbow&quot;:&quot;vertical&quot;,&quot;curved&quot;:0,&quot;rounded&quot;:0};" vertex="1" parent="QOd5lDTDU85s1vdmRcAn-49">
          <mxGeometry x="63" y="70" width="10" height="40" as="geometry" />
        </mxCell>
        <mxCell id="QOd5lDTDU85s1vdmRcAn-60" value="" style="html=1;points=[];perimeter=orthogonalPerimeter;outlineConnect=0;targetShapes=umlLifeline;portConstraint=eastwest;newEdgeStyle={&quot;edgeStyle&quot;:&quot;elbowEdgeStyle&quot;,&quot;elbow&quot;:&quot;vertical&quot;,&quot;curved&quot;:0,&quot;rounded&quot;:0};" vertex="1" parent="QOd5lDTDU85s1vdmRcAn-49">
          <mxGeometry x="63" y="140" width="10" height="60" as="geometry" />
        </mxCell>
        <mxCell id="QOd5lDTDU85s1vdmRcAn-53" value="&lt;i style=&quot;border-color: var(--border-color);&quot;&gt;estadoSediento&lt;/i&gt;&amp;nbsp;:&amp;nbsp;&lt;br&gt;&lt;b style=&quot;border-color: var(--border-color);&quot;&gt;EstadoSediento&lt;/b&gt;" style="shape=umlLifeline;perimeter=lifelinePerimeter;whiteSpace=wrap;html=1;container=0;dropTarget=0;collapsible=0;recursiveResize=0;outlineConnect=0;portConstraint=eastwest;newEdgeStyle={&quot;edgeStyle&quot;:&quot;elbowEdgeStyle&quot;,&quot;elbow&quot;:&quot;vertical&quot;,&quot;curved&quot;:0,&quot;rounded&quot;:0};" vertex="1" parent="1">
          <mxGeometry x="377" y="140" width="155" height="180" as="geometry" />
        </mxCell>
        <mxCell id="QOd5lDTDU85s1vdmRcAn-54" value="" style="html=1;points=[];perimeter=orthogonalPerimeter;outlineConnect=0;targetShapes=umlLifeline;portConstraint=eastwest;newEdgeStyle={&quot;edgeStyle&quot;:&quot;elbowEdgeStyle&quot;,&quot;elbow&quot;:&quot;vertical&quot;,&quot;curved&quot;:0,&quot;rounded&quot;:0};" vertex="1" parent="QOd5lDTDU85s1vdmRcAn-53">
          <mxGeometry x="72.5" y="95" width="10" height="60" as="geometry" />
        </mxCell>
        <mxCell id="QOd5lDTDU85s1vdmRcAn-55" value="2:&lt;br&gt;&amp;nbsp;+ pegar()" style="html=1;verticalAlign=bottom;endArrow=block;edgeStyle=elbowEdgeStyle;elbow=horizontal;curved=0;rounded=0;" edge="1" parent="1" source="QOd5lDTDU85s1vdmRcAn-50" target="QOd5lDTDU85s1vdmRcAn-54">
          <mxGeometry x="-0.0777" relative="1" as="geometry">
            <mxPoint x="250" y="210" as="sourcePoint" />
            <Array as="points">
              <mxPoint x="342" y="240" />
            </Array>
            <mxPoint x="454" y="245" as="targetPoint" />
            <mxPoint as="offset" />
          </mxGeometry>
        </mxCell>
        <mxCell id="QOd5lDTDU85s1vdmRcAn-58" value="1:&lt;br&gt;+pegar()" style="html=1;verticalAlign=bottom;startArrow=oval;startFill=1;endArrow=block;startSize=8;edgeStyle=elbowEdgeStyle;elbow=vertical;curved=0;rounded=0;" edge="1" parent="1">
          <mxGeometry width="60" relative="1" as="geometry">
            <mxPoint x="107" y="220.27586206896558" as="sourcePoint" />
            <mxPoint x="237" y="220.30999999999995" as="targetPoint" />
          </mxGeometry>
        </mxCell>
        <mxCell id="QOd5lDTDU85s1vdmRcAn-59" value="" style="html=1;verticalAlign=bottom;endArrow=open;dashed=1;endSize=8;edgeStyle=elbowEdgeStyle;elbow=vertical;curved=0;rounded=0;exitX=0;exitY=0.833;exitDx=0;exitDy=0;exitPerimeter=0;" edge="1" parent="1" source="QOd5lDTDU85s1vdmRcAn-54" target="QOd5lDTDU85s1vdmRcAn-60">
          <mxGeometry x="-0.0028" relative="1" as="geometry">
            <mxPoint x="599.5" y="320.17999999999995" as="sourcePoint" />
            <mxPoint x="272" y="300" as="targetPoint" />
            <mxPoint as="offset" />
            <Array as="points" />
          </mxGeometry>
        </mxCell>
        <mxCell id="QOd5lDTDU85s1vdmRcAn-61" value="" style="html=1;verticalAlign=bottom;endArrow=open;dashed=1;endSize=8;edgeStyle=elbowEdgeStyle;elbow=horizontal;curved=0;rounded=0;" edge="1" parent="1" source="QOd5lDTDU85s1vdmRcAn-60">
          <mxGeometry x="-0.0028" relative="1" as="geometry">
            <mxPoint x="240" y="350.07000000000005" as="sourcePoint" />
            <mxPoint x="102" y="330" as="targetPoint" />
            <mxPoint as="offset" />
            <Array as="points">
              <mxPoint x="232" y="330" />
            </Array>
          </mxGeometry>
        </mxCell>
        <mxCell id="QOd5lDTDU85s1vdmRcAn-66" value="&lt;i style=&quot;border-color: var(--border-color);&quot;&gt;mostrar por pantalla&lt;br&gt;estadoTriste&lt;/i&gt;" style="text;html=1;strokeColor=none;fillColor=none;align=center;verticalAlign=middle;whiteSpace=wrap;rounded=0;" vertex="1" parent="1">
          <mxGeometry x="110" y="300" width="130" height="30" as="geometry" />
        </mxCell>
        <mxCell id="QOd5lDTDU85s1vdmRcAn-68" value="&lt;i style=&quot;border-color: var(--border-color);&quot;&gt;estadoTriste&lt;/i&gt;" style="text;html=1;strokeColor=none;fillColor=none;align=center;verticalAlign=middle;whiteSpace=wrap;rounded=0;" vertex="1" parent="1">
          <mxGeometry x="288.26" y="260" width="108.99" height="30" as="geometry" />
        </mxCell>
        <mxCell id="QOd5lDTDU85s1vdmRcAn-69" value="" style="html=1;verticalAlign=bottom;endArrow=open;dashed=1;endSize=8;edgeStyle=elbowEdgeStyle;elbow=vertical;curved=0;rounded=0;" edge="1" parent="1">
          <mxGeometry x="0.5" relative="1" as="geometry">
            <mxPoint x="567.7499999999999" y="610.28" as="sourcePoint" />
            <mxPoint x="567.7499999999999" y="610.6206896551726" as="targetPoint" />
            <mxPoint as="offset" />
          </mxGeometry>
        </mxCell>
        <mxCell id="QOd5lDTDU85s1vdmRcAn-70" value="&lt;h3 style=&quot;&quot;&gt;Realizar un diagrama de secuencias para cuando el Tamagotchi está Triste y se le Da de tomar&lt;br&gt;&lt;/h3&gt;" style="text;html=1;strokeColor=none;fillColor=none;align=center;verticalAlign=middle;whiteSpace=wrap;rounded=0;" vertex="1" parent="1">
          <mxGeometry x="157.75" y="490" width="670" height="80" as="geometry" />
        </mxCell>
        <mxCell id="QOd5lDTDU85s1vdmRcAn-71" value="&lt;h1 style=&quot;font-size: 21px;&quot;&gt;&lt;span style=&quot;background-color: initial; font-size: 21px;&quot;&gt;ENUNCIADO:&amp;nbsp;&lt;/span&gt;&lt;br style=&quot;font-size: 21px;&quot;&gt;&lt;/h1&gt;" style="text;html=1;strokeColor=none;fillColor=none;align=center;verticalAlign=middle;whiteSpace=wrap;rounded=0;fontSize=21;fontStyle=1" vertex="1" parent="1">
          <mxGeometry x="7.75" y="490" width="160" height="70" as="geometry" />
        </mxCell>
        <mxCell id="QOd5lDTDU85s1vdmRcAn-72" value="&lt;i&gt;this&lt;/i&gt; : &lt;b&gt;Tamagotchi&lt;/b&gt;" style="shape=umlLifeline;perimeter=lifelinePerimeter;whiteSpace=wrap;html=1;container=0;dropTarget=0;collapsible=0;recursiveResize=0;outlineConnect=0;portConstraint=eastwest;newEdgeStyle={&quot;edgeStyle&quot;:&quot;elbowEdgeStyle&quot;,&quot;elbow&quot;:&quot;vertical&quot;,&quot;curved&quot;:0,&quot;rounded&quot;:0};" vertex="1" parent="1">
          <mxGeometry x="180" y="610" width="136" height="270" as="geometry" />
        </mxCell>
        <mxCell id="QOd5lDTDU85s1vdmRcAn-73" value="" style="html=1;points=[];perimeter=orthogonalPerimeter;outlineConnect=0;targetShapes=umlLifeline;portConstraint=eastwest;newEdgeStyle={&quot;edgeStyle&quot;:&quot;elbowEdgeStyle&quot;,&quot;elbow&quot;:&quot;vertical&quot;,&quot;curved&quot;:0,&quot;rounded&quot;:0};" vertex="1" parent="QOd5lDTDU85s1vdmRcAn-72">
          <mxGeometry x="63" y="70" width="10" height="40" as="geometry" />
        </mxCell>
        <mxCell id="QOd5lDTDU85s1vdmRcAn-82" value="" style="html=1;points=[];perimeter=orthogonalPerimeter;outlineConnect=0;targetShapes=umlLifeline;portConstraint=eastwest;newEdgeStyle={&quot;edgeStyle&quot;:&quot;elbowEdgeStyle&quot;,&quot;elbow&quot;:&quot;vertical&quot;,&quot;curved&quot;:0,&quot;rounded&quot;:0};" vertex="1" parent="QOd5lDTDU85s1vdmRcAn-72">
          <mxGeometry x="63" y="140" width="10" height="70" as="geometry" />
        </mxCell>
        <mxCell id="QOd5lDTDU85s1vdmRcAn-76" value="&lt;i style=&quot;border-color: var(--border-color);&quot;&gt;estadoTriste&lt;/i&gt;&amp;nbsp;:&amp;nbsp;&lt;br&gt;&lt;b style=&quot;border-color: var(--border-color);&quot;&gt;EstadoTriste&lt;/b&gt;" style="shape=umlLifeline;perimeter=lifelinePerimeter;whiteSpace=wrap;html=1;container=0;dropTarget=0;collapsible=0;recursiveResize=0;outlineConnect=0;portConstraint=eastwest;newEdgeStyle={&quot;edgeStyle&quot;:&quot;elbowEdgeStyle&quot;,&quot;elbow&quot;:&quot;vertical&quot;,&quot;curved&quot;:0,&quot;rounded&quot;:0};" vertex="1" parent="1">
          <mxGeometry x="380" y="610" width="150" height="190" as="geometry" />
        </mxCell>
        <mxCell id="QOd5lDTDU85s1vdmRcAn-77" value="" style="html=1;points=[];perimeter=orthogonalPerimeter;outlineConnect=0;targetShapes=umlLifeline;portConstraint=eastwest;newEdgeStyle={&quot;edgeStyle&quot;:&quot;elbowEdgeStyle&quot;,&quot;elbow&quot;:&quot;vertical&quot;,&quot;curved&quot;:0,&quot;rounded&quot;:0};" vertex="1" parent="QOd5lDTDU85s1vdmRcAn-76">
          <mxGeometry x="70" y="100" width="10" height="60" as="geometry" />
        </mxCell>
        <mxCell id="QOd5lDTDU85s1vdmRcAn-78" value="2:&lt;br&gt;&amp;nbsp;+darDeTomar()" style="html=1;verticalAlign=bottom;endArrow=block;edgeStyle=elbowEdgeStyle;elbow=horizontal;curved=0;rounded=0;" edge="1" parent="1" target="QOd5lDTDU85s1vdmRcAn-77">
          <mxGeometry x="-0.0051" relative="1" as="geometry">
            <mxPoint x="253" y="715" as="sourcePoint" />
            <Array as="points">
              <mxPoint x="351" y="715" />
            </Array>
            <mxPoint x="432.28" y="715.03" as="targetPoint" />
            <mxPoint as="offset" />
          </mxGeometry>
        </mxCell>
        <mxCell id="QOd5lDTDU85s1vdmRcAn-80" value="1:&lt;br&gt;+darDeTomar()" style="html=1;verticalAlign=bottom;startArrow=oval;startFill=1;endArrow=block;startSize=8;edgeStyle=elbowEdgeStyle;elbow=vertical;curved=0;rounded=0;" edge="1" parent="1">
          <mxGeometry width="60" relative="1" as="geometry">
            <mxPoint x="110" y="690.2758620689656" as="sourcePoint" />
            <mxPoint x="240" y="690.31" as="targetPoint" />
          </mxGeometry>
        </mxCell>
        <mxCell id="QOd5lDTDU85s1vdmRcAn-81" value="" style="html=1;verticalAlign=bottom;endArrow=open;dashed=1;endSize=8;edgeStyle=elbowEdgeStyle;elbow=vertical;curved=0;rounded=0;" edge="1" parent="1" target="QOd5lDTDU85s1vdmRcAn-82">
          <mxGeometry x="-0.0028" relative="1" as="geometry">
            <mxPoint x="450" y="760.004482758621" as="sourcePoint" />
            <mxPoint x="247.81034482758605" y="760.004482758621" as="targetPoint" />
            <mxPoint as="offset" />
            <Array as="points" />
          </mxGeometry>
        </mxCell>
        <mxCell id="QOd5lDTDU85s1vdmRcAn-83" value="" style="html=1;verticalAlign=bottom;endArrow=open;dashed=1;endSize=8;edgeStyle=elbowEdgeStyle;elbow=horizontal;curved=0;rounded=0;" edge="1" parent="1" source="QOd5lDTDU85s1vdmRcAn-82">
          <mxGeometry x="-0.0028" relative="1" as="geometry">
            <mxPoint x="243" y="820.07" as="sourcePoint" />
            <mxPoint x="110" y="810" as="targetPoint" />
            <mxPoint as="offset" />
            <Array as="points">
              <mxPoint x="210" y="810" />
            </Array>
          </mxGeometry>
        </mxCell>
        <mxCell id="QOd5lDTDU85s1vdmRcAn-84" value="&lt;i style=&quot;border-color: var(--border-color);&quot;&gt;mostrar por pantalla&lt;i style=&quot;border-color: var(--border-color);&quot;&gt;&amp;nbsp;&lt;/i&gt;&lt;br&gt;estadoFeliz&lt;/i&gt;&amp;nbsp;" style="text;html=1;strokeColor=none;fillColor=none;align=center;verticalAlign=middle;whiteSpace=wrap;rounded=0;" vertex="1" parent="1">
          <mxGeometry x="120" y="780" width="120" height="30" as="geometry" />
        </mxCell>
        <mxCell id="QOd5lDTDU85s1vdmRcAn-85" value="&lt;i style=&quot;border-color: var(--border-color);&quot;&gt;estadoFeliz&lt;/i&gt;&amp;nbsp;" style="text;html=1;strokeColor=none;fillColor=none;align=center;verticalAlign=middle;whiteSpace=wrap;rounded=0;" vertex="1" parent="1">
          <mxGeometry x="305" y="730" width="95" height="30" as="geometry" />
        </mxCell>
        <mxCell id="TOGCRtj5Hr8nHxOg1Vfm-1" value="" style="shape=image;verticalLabelPosition=bottom;labelBackgroundColor=default;verticalAlign=top;aspect=fixed;imageAspect=0;image=data:image/png,iVBORw0KGgoAAAANSUhEUgAAA4wAAAH2CAYAAAA77AIsAAAgAElEQVR4Aey9z89tSVX/Dw6ICVMcM1NjdGAYMusRccI/QE8YmDiD7oTE+DFeOyEdyCffOFM+ab4MnUiUHrSfQUeQcAdG2jiwsR3cILH5JtIIcpHAxZbz5f0079vrrlu7Tu1z9j61a+/XTp67f1TVWqtWvVZVrWef59z3vOc97znxgw9gAAZgAAZgAAZgAAZgAAZgAAYKDOCUglNIovlFAgzAAAzAAAzAAAzAAAzAAAyQLJEwwwAMwAAMwAAMwAAMwAAMwAAMTDCAYyYcw28T+I0SDMAADMAADMAADMAADMDA0RkgYSRhhAEYgAEYgAEYgAEYgAEYgAEYKDJQfHj0LJr+85skGIABGIABGIABGIABGIABGCCLJmGGARiAARiAARiAARiAARiAARiYYADHTDiG3ybwGyUYgAEYgAEYgAEYgAEYgIGjM0DCSMIIAzAAAzAAAzAAAzAAAzAAAzBQZKD48OhZNP3nN0kwAAOHY+CHP/zPEwceOOeBR49+fLp3797h4oNNJPtFGICBAzPA4B948FnwSYpgAAYeM6BE4Q//8Lf5wQdVBpxQkjSyf2L/BAMwcBgGDtPRx5si4GbMYQAGYOBpBkgYSZZbfmEgTv7mbz53lzeSND4dR8wt+AQGYGCHDDCoOxxUkmPeGsEADMxmgISRhLE1YVQ9kkb2T+yfYAAGDsPAYTo6e/NEEMAGDMDAkRggYSRhnJMwkjQyPx5pfqSv8H5wBgDg4ACQSPMmCgZg4I4BEkYSxrkJI0kjeyj2UDAAA4dg4BCdZEPMhhgGYAAGzjBAwkjCeEnCSNLIPoqEAQZgYPcM7L6DbBLPbBIJcmIABmBADJAwkjBemjCSNDKHsI7AAAzsmoFdd45kkWQRBmAABhoZKCWMX/jC755+8IN/P33nOw+e+K8W/uIv/tfdc51bkgzq7CcZLXHi8eWLcNhTkTTAAAzskoFddooNYuMGkaCGfxiAATNQSgScMKrs61//y8fJIQnjfhJAJ3ut5xInsS1JI3OK5xTOsAADu2FgNx0hSSRJhAEYgIErGCglAkoYv/e9fzt961v/ePrJT/7r5DeKcxLGL3/5/5y+/e1/fpxsxuSC6/ESzxIneRxJGtlbkSjAAAzsioFddYbN4hWbRQKbWICBYzNQSgScMCrp08dSHzz4u7vELyeMKn/77Z9KxN3henorGY/S85iI5sSD++0llBrPlnEhaTz2fMJ6wvjDwK4Y2FVnSBhJGGEABmDgQgZKiUBMGJUk/uhH3z8pOYwJY3yuREL3SgL9EVad499Aqr3eWkq26qtcfyfp+5ZkhDr9EslvfvPr8XcAZ68fPfoxMXlhTLLhZo8KAzCwEQYYiI0MBAsqCyoMwEBXBs4ljErS9IZQyd1f//X/fvylN6WET/Xi28SYMOp5PnjL2C8BXDv51lizzrLXggEYgIGhGRjaeBYhNtgwAAMwsBAD2tjn5CG+YVSZ7pUwvvHG316VMMYEMuvkfl/JIwkj+ywSBRiAgeEZGL4DbBYX2iwSzMQCDBybgZaEUcmc/17RbwUv+Uiq2koOyeG+ksPSeJIwHnteYV1h/GFgFwzsohMkjSSNMAADMHAlA60Jo5ICvSF0whiTSMnQ4Y+jqsx/0xif62Os8fAbR53994yqoy/SIbEcO6nUOLNhZK8FAzAAA0MzMLTxLEJXbhAJXviHARgwA9rYl94Q8WzshK33+JEwMsd4juEMCzAwLAPDGk6ySLIIAzAAAwsyQMJIYrhGcknCyD6LJAEGYGB4BobvABvGBTeMBDTxAAPHZYCEkYSRhPG48c/cz9jDAAxUGMA5FeeQjJKMwgAMHIYBEkYSRhJG9kTsiWAABmCgwABOKTjlMBtE+g7/MAADZoCEkYSRhJH5wPMBZ1iAARgIDOCM4AwSRd4mwQAMHJYBEkYSRhJG9kTsiWAABmCgwABOKTjlsBtGfEE8wMBxGSgljF/4wu/e/TcXKvPh/05D/93Fj370/bv/NuNcolGSo/9CI/8fjufkXFuu/6rD9kdZskVl8RnXyyTQ4oZ55bjzCmPP2MPALhjYRSdYjHgrBAMwAANXMqCNfU6SnOhdk0xZhv+vxajj1gnjt7/9z6fvfe/fnkoOSRiXSQ7j2PqahJF9FgkDDMDA8AwM3wE2iVduEgliYgAGYEAMXJMwKin0G0MnCj4/ePB3d28pVcfPfL5lwihdP/jBv98li0oaoz2XJIxKotU392Wps5Javb1dSl5vOSSMzC+sMTAAA8MzMHwHSBhJGGEABmBgAQbmJozxI6m6fvvtnz715k7JipKxqcQqJ4yq50PynDipnj5K6kOJnxM+yfeh66kESbL1o3ZKGC3bNn7rW/941wfJih9bVWIYD8uJz5w8SoZss+3Z7mif7FBdH9///v/3xL1tsG9dT/pzH50MK9n0EXW5jy6zbD2XfPlDtuuwj6Jtkit5stm6dLYdKot26T4ebBbZa8EADMDA0AwMbTybxAU2iQQwMQADMCAGdDgB8DknNarjZE2Jxrm/YXT7qY+0KumQjJi8WbfaOOlxkuYyn/PznLi4nuyISWKpnfulNirX/f/9v//PE+0sz3VUz8907UTRz+I521CyNdeJ7XVdStb8XEmg7bHffa+zfan6und/nZC6rstjfV27fsmG2BfJibLEDHMMcwwMwAAMDM3A0MazCJEwwgAMwMBCDGhjr2Qh/jjxKCV8LQmjZMVkIsrWdU4YlWjEw0mKk5r4Zsy2xfq6jomO9bl9rGvZJRtjUmSbstycGOk+15Ec2RwP+TL323aWEsZseykpLclzwm0/xTGM/cvjWKqvOv4Yb2xruz3Gbhv7q2s2iuy1YAAGYGBoBoY2nkVooY0iQUwcwAAMaGPvBMBnJwAx2XBZTjT8PJ+VSMXkLJbHREc6Yr18r3aqrwRM9fT2T+eSbVGHrnNyp37FN45OeNyulBRJjw7JKsks6Yj2RV/GflunztmuXC/fu23puexVv6LeWF+2qV1MBm1DtFvPYh21cVvLs/9KuuQz5hfmFxiAARgYmoG68ZroOfAAHrjeA0yU9bkG//T3jyh3AuBzKQFwWWvCqARDSZ6SCrf1OSY6SrhiHV0rMZENrq9zTFjUplQn1y997DXqy7qm5DoJk3zV0Y915fvYN9WRv/R20AmudMb2qqO+xkQ2+1htp94wyseW53Hzvc7Rt7q332Iy6L6o7lT93C/dR91RtuTpIL77xzdjwBjAAAxcwUDdeUz0df9c4XgW0AO9HSWOiKMR5gpx6oTBZyceKvOh5EBJQkxmcjLk9j47qbAMnZX8xOQj69KXsPhjkEpC4qF7y1ZiEw8nZC7XvZMjP9M52q8vdXnjjb+9S8Yky33MNsVkzX1WfemQTdEu6dBzH7JB/bF92SdO0NxX2+B7yVH7mFC6P5Il+dd86Y36anm539brOtEm2Sm9se95TEbgHxuZp2EABmBgkoHJgruERgsUzqv7CP/gn3MMEEcwco6RLZSLUycMLeeYcLXUp86Tfx+6pD+cMOq8pFzL0lgraXTC6OctZ+Y/5r8tzG/YAIcwcBUD9cZM9HX/AB/+aWGAOIKTFk561xGnLQmA61yTRFgG52WSSBJG5pje8wf6YRAGds1AvXNsdOv+ITjwTwsDxBGctHDSu05rwhg/rhg/hkjyt0zyd4kfSRiZY3rPH+iHQRjYNQP1zrHRrfuH4MA/LQwQR3DSwknvOq0J4yUJDW36JZO9fc/8x/zXe25DPwzCwNUM1AUw0df9A4D4p4UB4ghOWjjpXYeE8bhJ3ZpJJfMf81/vuQ39MAgDVzNQF8BEX/cPAOKfFgaIIzhp4aR3HRJGEsY1EkfmP+a/3nMb+mEQBq5moC6AiX7aP88888zpzTfflIueOl599dVdfLus+jHVl2efffb01ltvnV544YVd9HXNyUSArCkf2dNxim/afSNO10gYkHnsRJT5rz0Gma/wFQzAwEYZqA8ME33dPx5UJU0PHjw4KYn0sz2cawnjHvp3qz4QR21xdKvxQE95PMQpyd2xk7s1xp/5rxxvzEP4BQZgYCAG6oPFRF/3jwd6tIRR9r722mtnk1sSxrbxNwdTZ+JoGT9O+Zfny/j3hz/8T6HKgQcW9YC4IkaXiVH8iB9hAAY6MVB3vFaNToYNpbeUMOrZo0ePHi+8/min6+qNpA+Vvf7667594mOgKvMheWrvMYll+nisZLg8f2RW5Xr20ksvWdzd2XbF59ajMiWWDx8+fNxG9aSfj6TWY8djpLOOeM91u+/wFb6CARiAARiAARiAga4M1JWz0a37x/A6CZz6SKqSKyVsOquuEjInXqV7/W2g6lq+z2qjpFD3ahfrqcyJnspVz8mg7902yinJ0jP9qL2SRduidk489Yy/YWzjgzhq85O544y/YAAGYAAGYAAGYGAzDNQNYaNb949BLiWMTgTlQx1O5nKip8TLyaTk5URMSVs8nLDpuRNAtVOyqreWkp9lqDzamBPGLMv9ys+jrSUdbsf5SW40fvjkSZ/gD/wBAzAAAzAAAzAAA0MwUDeSjW7dP4Y8JmN6lpOpeF+qO5Uwxjd6khvvczK3VsIoPe4nCWMbD/aXz8TRZX6z/zjjPxiAARiAARiAARjoxkBdMRvdun8Mbk4CdT/1cdFcNyZhkheTy5wU6o2i3zAqeYwfF5Vc3essOUt9JJWEsY0Bs1A6E0fX+7DkV57hVxiAARiAARiAARhYnYG6Aja6df8Y0JwE6rkSLR/6qKg/Lprr1hJGvTVUgujj/v37T/z3HVGHElTVdcKY2zrRlG3S6S+ycUIYZfnjs3rmcreTHLWPia39wLnMi8YP35R9g1/wCwzAAAzAAAzAAAxsmoG6cWx06/7ZEtzxI6lbsgtb+JbUWzKQfyFzS93oGme+ZKwYKxiAARiAARhoZqBekYSx7p8tgZY/orol245uC3F0uzgiYbydr48e1/Qf1mAABmAABg7CQH2g2ejW/dMTkvixUo2TDiWNPW1Cd5kXjQ2+Kfum5Bclffr/P0tl556RMLb7+ZwvKceXMAADMAADMAADP2eg7gQ2unX/nPMf5fhPDBw9jpTE6e9idfjvY+WX/EsP/X3sK6+8clfP//hvaPUlTj7ilz3lv9X13wvruXRE3WpveUeKTfuNMx7o5YEjxRt9Zd2HARjYIQP1QdXissNO06czvyhgzOtxMdc/R44jJYX+oiT5TQmcv0E4f6mS/ao35fH/GPVzn2M7Xce6uvYXPOUvZnKCerQ38Ufmz8xwXnZOm+NP+Ovn+znjRF3GCQZgoMJA3Tma6DnwAB643AP37t27a1wJwl39AkMJnA8lZvrJh98y+u1ffGMoP5USxviGUfJ077eLMQGUTL1lVJmeO3m0/2Oy6Wd7P8tfe+8j/auv5T39A3/bHZueXKAbLmBgKAbqxjLR1/0D7PinhYEjx1Epacs+85s/J3c5YcxvEX1/1ITxj/7oj06f+tSnmpPAI/OXWeP+9nM2/N3e53COz2EABhZmoO5QJvq6fxYejOYNIHrHGpcjx5GTwfgWsMSv6vmjqzlh1NtEJYlq5yRRz3Svs691r3pOPCVTH3/VW0eVtdqiulv++fVf//XTl770pdPXvva104c//OGzth6Zvy2P41Fsg79tzydH4ZB+wiEMXMVAvTETfd0/wId/Whg4ehz5o6fygw4ndEru4uGk0ImdyvQs3uvjrPfv33+cJDqBtJwjfenNxz/+8buE+DOf+czpve9972TiKN+0cEod5rM1GIA/uFqDK2TCFQzclIG6Mib6un+AFf+0MEAcwUkLJ5fU+cAHPnD6/Oc/f3rjjTdOH/3oR4uJIfzB3yVsLdUG/uBvKZaQA0sw0I2BumIm+rp/ABf/tDBAHMFJCyfX1FGyqKRRyaOSyCgL/uAv8nDra/iDv1szhz6Yg4HFGagLZKKv+wcg8U8LA8QRnLRwcm0dfSz1s5/97N3HVPVxVcs7On/xm3PtE863i8mj8wdrt2MNX+NrGFiNgbpgJvq6fwAT/7QwQBzBSQsnS9XRF+HoC3H0xTi/+Zu/KfweJ49L6RhJDglj3/g7On8jxQq29o0V/I//N8xAfXCY6Ov+2fDAHnqDuLVxURxx4IEeHvjmN795p3ZrMXFLey5NGF977bXH37C7lL2yRXKXkjeCHAE4gp3YyH4HBmAABiYZmCy4m+CZ6Ov+ASz808IAcQQnLZwsVecTn/jE3cdSP/e5z50++MEPCr9DbNjjt+7q23SVnMmnThj1Dbo+/I28Ko/tVP7KK6/cfZOv6z58+PDum3r137e8/PLLJ937WWwbdUqu/nsYHyr7h3/4B9/enaMNS439FuWos1u0C5uYl2EABmCgmYF6RSb6un8ADf+0MEAcwUkLJ9fW+djHPnb6xje+cfriF794+tCHPvR4k743/uL/r6kkrpR4xf/LUwmjEjb/X6D+b1p0r2v//5/R//rvWpRgOulUmXQ5UYx1fZ116v8AlXyX6xzrxPvYp1h/D9d7428PY0IfWJNgAAZmMlB3GBN93T8znf3ExoG2x/EtcXScse4R1x/5yEdOX/3qV+9+dJ1t2BN/MbHKyWJ826c++//7VNKXkzfVdaIpOTp8L/9NJYyxjurpPh7WqeeSm8ciJ4wq1zO1++QnP3lnZ0xSc/sR7+WfEe3GZuZtGIABGHjMwOOL4oTORF/3DyDhnxYGiCM4qXFSSiJq9V2mt4h6m6i3inq76Of5vCf+5Cu/LdTbPidwTrqU6Kn/8f5cwmh/OflT26mEUWWuH3VknXMTRvXlj//4j+/eYLpP1jP6eU/8jT4W2M9aBAMwcCEDdccx0df9c6HTH284aH8M/xJHxxjnS+LZSUrpbdSUPP1dov4+UW/N9PeKU/X8fG/8ld4y5gRN/vTbPiWMTjLlE7VXghaTP/tKcvTTkjCe05nfakqHdMax9n3sk23Zy3lv/O1lXOgH6xIMwMAMBurOYqKv+2eGo89u6pC1X18TR/sd22vi1smCz62y7t27d/r0pz99ev/73980rxyBPyV4ShB93L9//+5vEPVcCaO+mVSJmg8le/K3k0c/j3+jqDo6/EztNVYep5pO1XF7yVDCKjuiPttgeXs9q/977Rv9Ym6HARg4CAP1gWair/vnIJCw2P9883fNWBNH1/nvGt+P0HZuwvi+971vFo/wB3894wD+4K8nf+iGPxhYhIG6ECb6un+AEP+0MEAcwUmNk7kJY01WqQz+4K/Exa2ewR/83Yo19MAaDKzGQF0wE33dP4CJf1oYII7gpMYJCSN81PgYvYz5D75HZxj7YRgGznzUjomeICFIrmeAOLreh3vmkIQRPvbMN/MffO+Zb/oG3wdhoD7QTPR1/xwEkll/L4VPnmaGOHraJ3Dyrk9IGN/1BVzszxfMf/sbU+KUMYWBwzFQ77Ameg48gAcu94C+0VIHk2t9rjmyf0gYYWPP/DP/wfee+aZv8H0QBuoDzURf989BICHZOfPR7XMcEEfE0TlG1iw/Mn/5v76QL9b67yzyf7ux5piOJPvI/I00TtjKOgUDMFBhoO4cJvq6fyqOJcm6Msnak2+JI+KoJ89H5k//76H+f0ad1xwDJaYPHjy4+78W19Qzouwj8zfieGEz6xUMwECBgbpTmOjr/ik4dNVNCfrGHA/iaMxx20u8HZm/F1544S6RU0LXMp56+6iPCLfUjXVulZhGnaNcH5m/UcYIO1mjYAAGzjBQdxATfd0/Z5w7e9OBvH36mzja57iOEq9H5m/q70P1PB6vvPLK3ZtIP9NbSSWZsd79+/dP+tip31YqufShMr1hdGIayyxrFF6WtlM+Wlom8phTYQAGYOCmDNSVMdHX/VODVZuKt956a9MfUdJv32WjN0C1/lB2OQvE0eW+g7vrfXdk/pTgxUOJ3NTHR/N8qPuHDx8+nsMly8mf5KhMc6fk6bmeiVedXS+XHZHnI/N3xPGmz9fP2fgQH26QgfqgzJno429i4wLtRXWDnZ/9W8/alxrkzYY2Dd5AeNNwK7/Ilvjb7prvo521epTVY6XmnzlxVJND2eVjcGTfHZU/z7tam/L4O5GMZbrWc9fVtedwPfNcWZLrtUFl+W8Z3c5yj3Y+Kn9HG2f6y/oEA7tmoN65Syd6L557g6e1X3nTUNpgrOmbOQnjnLpr2rxn2ZfG0Z59Qt/qc++S/jkqf+c+5aG579GjR4+TwpjY1eZwydUbRH8yI+rJZbee+5fkZilZR+VvKf8h53ZzJb7G1zAwycBkwd1vWWsTfS3RaE2stjIw+s1y/E3ylF2t/ZJv4kc9L9k0SMZrr732+LfdUzaVntfGJtfPG6Nczn09Rlr8U4ujlvbUuX4MjuzDo/I3NQ8+99xzj+dVzfua1/M8mOds1fGnZWKC6Hr+CGosE3NaW1x2VAaPyt9Rx5t+s17BwC4ZqHeqNtFPLcYCpZRY6ZkPL7yqqwVbiZGe6dBvfLXIxnvpMoBTcrxwW4dkqq6eq61kSLYPJ4g6x0O63Qc/94IvefpyA8vR2bbp7CQxbxJsm2W7Lzprg+G+Sp906QsY4mFbW/uuj0TFj6RKbzyyHZKbn0Ubua7HyTn/yPfn6lB+nY/x37T/jspfnve87kzNo36us3iKa8PLL7/8xHriuloDVBZ/uRf1WueR+Twqf0cec/o+PR/jG3wzKAP1gatN9EqQYlISHaDFtJaAaCF2EqRzXFRL917Aow5dZzmxnq6d6OXf+jpJs41RjuVGWdYbZeZ6OWGM7Z0wyp8+bFvWbV2yLcrwc59jO13HutHOaJfa6l7+1tmyVN++8DPO9diY4x+N+Zz61F3O9/jyPXdTDn6AqV4MMP/BXi/20At7MLAYA3VBpYleiUU+YsKnwSklIHoWD92rbk52cqKkeydXlp3lOCGLSY8SIie0WYb1Sne+LslSHet2G91HHbqObxjdP9WryVQ7/ZY6+zD7wfrn9j3713Kir0rjpXr8LOMDjRm+XMaX+HG+H+Fvvs/gbDmfwd9yvoRLfAkDMNCJgbrjaxN9TJay8TkByUlLvNe1fiwjJ0ox2YvtVN/3pYQs2hdlWE/UG69Lstwm9yvq0LUTxvhcbWsyLdtvPZ0cZz+4r67v+5LsqN/13E7n3I98H+tyXY+RFv/U4qilPXWuH4Mj+xD+4Kcn//AHfz35Qzf8wcAiDNSF1Cb6mJTkwcgJiO6VuKieExw9072eu0z3OVGKyV5Njsos03KdfC35kVTZI/n6iT7QdUwYfa167nNsaxnxLDtls87ZD5f2Pdplm+NHUmWb3sSqXrSF63pszPFPLY7myKHucmNyJF/CH9z05B3+4K8nf+iGPxhYhIG6kEsneiU3MTny2zPJ08cv9cUxTu7mJIw1OU7KpEOHkiB/JFWwKCGSbh8xSY1lsjvLcuKZ+6V21qFrJ4k5CcvyZIM/gio74mG7Yl/1LN5nH2b5ue/qUzzi2ES7Cap6PFzqH/n+0ra0W2dMjuRX+IOhnrzDH/z15A/d8AcDizBQFzLyRB+TuR6wKMlzUtxDf6tO2ekktbUN9epxk/0zchzlvnA/b+y34C/xx4EHenjg3r17d2q3EAfYMN7cxZgxZjCwGQbqhmimH3WwlKz1TNj0RlBvHJW4btWHvF2s87/UuI0cR0v5ADm3Ya3kZ/jr5/vSeBztGfzB39GYp78wv0MG6oM60kSfP3bpj3zucNA2m4Di63I8jRRHjGF5DEf2C/ztb0xH4hH+4G8kXrEVXmGgyEDx4eOEhIm+7h+gwj8tDBBHcNLCyVp14A/+1mKrRS78wV8LJ9SBExjYNAN145jo6/4BbvzTwgBxBCctnKxVB/7gby22WuTCH/y1cEIdOIGBTTNQN46Jvu4f4MY/LQwQR3DSwsladeAP/tZiq0Uu/MFfCyfUgRMY2DQDdeOY6Ov+AW7808IAcQQnLZysVQf+4G8ttlrkwh/8tXBCHTiBgU0zUDeOib7uH+DGPy0MEEdw0sLJWnXgD/7WYqtFLvzBXwsn1IETGNg0A3XjmOjr/gFu/NPCAHEEJy2crFUH/uBvLbZa5MIf/LVwQh04gYFNM1A3jom+7h/gxj8tDBBHcNLCyVp14A/+1mKrRS78wV8LJ9SBExjYNAN145jo6/4BbvzTwgBxBCctnKxVB/7gby22WuTCH/y1cEIdOIGBTTNQN46Jvu4f4MY/LQwQR3DSwsladeAP/tZiq0Uu/MFfCyfUgRMY2DQDdeOY6Ov+AW7808IAcQQnLZysVQf+4G8ttlrkwh/8tXBCHTiBgU0zUDeOib7uH+DGPy0MEEdw0sLJWnXgD/7WYqtFLvzBXwsn1IETGNg0A3XjmOjr/gFu/NPCAHEEJy2crFUH/uBvLbZa5MIf/LVwQh04gYFNM1A3jom+7h/gxj8tDBBHcNLCyVp14A/+1mKrRS78wV8LJ9SBExjYNAN145jo6/4BbvzTwgBxBCctnKxVB/7gby22WuTCH/y1cEIdOIGBTTNQN46Jvu4f4MY/LQwQR3DSwsladeAP/tZiq0Uu/MFfCyfUgRMY2DQDdeOY6Ov+AW7808IAcQQnLZysVQf+4G8ttlrkwh/8tXBCHTiBgU0zUDeOib7uH+DGPy0MEEdw0sLJWnXgD/7WYqtFLvzBXwsn1IETGNg0A3XjmOjr/rkE7meeeeb05ptvnl566aVTvL5EFm2WH581fEocjTFOa4z9FmSKPw480MMD9+7du1O7hTjABuZhGIABGLiYgXpDzfTXOPeFF144PXjw4C4xmivn2WefPT18+PCJNU6JlpKsVlklGa+++mpz+1Y9c+opUXz99dcf23CNj1r0qr9RX2yztu6o68jX18bRkX1H3+tzdIt/4O96H7b4mTplP8Nf2S/wgl9gAAYGYqA+WNdO9NckJEr23nrrrZNk2KFKfpREqszPps5OFnsniNk+JW9KGv1cCXAXJ+UAACAASURBVLCS6thPl619vmZ81rZtT/KvjaM9+YK+1OfcNfwDf7f3+RrjOKpM+IO/UdnFbtiFgccMPL54nMBE59Qm+pZko6VO1BevSwmjypVwtSSBqjf1Zi3queX1VJ/UH/dJPnvttdeK47G0rdeMz9K27FleLY723G/6Vp9fb+Uf+NvGONxqvLemB/7gb2tMYg9MwsBsBuoNahN9Kdnw3+SpnQ69OYsfSVVS5OPRo0eP36pZ1v379++KVW8qudLbufjRVCWFPpwg2o74Ji/DobJ4uK70Sr6SNh+SG223Hsm0Ltd14mc5L7/88l2R2qifemuqsmiPdFum2pfeouq560S9apttiP6J7XK9PD7RJq7rsTHHPwJgTn3qLud7fPmeu/kHP8BULwaY/2CvF3vohT0YWIyBuqDaRO8kT0mIByQmJ3qmBCcmL66nc0ySJEsJpNq7TkvCqPqxjfTpfqqtZefETfdK0nRWW11bbuk+flRWOp1sOiHTvdvFJE/yYwJte6Iv/CyfJU++1FllamPfut9uo3vrVT9K16qr55bhtpzrMXGJf2pxdIk82iw/Rnv2KfzBS0++4Q/+evKHbviDgUUYqAspTfRKVPKhBOvFF1+8Sz5U7sHJCZKSl3g4WVG9/OZNiVFMzCzTidLzzz9/py/K07WSoJi4uV08xyTKz9VOsrNeyVKSJxtVN8pWXfU9H5Kf5aht9od1S6+TOj8rnVVHslXm63N63Ndot2VP2eNyzvX4aPWP+GitS71lfI4f3/XjEvxpHvHcM9e3ahePlrnOOjRH6ZeJPrxmuPyWZ8+5+vSJ14Oa/tzvtWy/Zmxq9i9VprFbShZy3o1rfIEvYAAGbshA3dm1iT4nG+cSEid6qqcOxvssS+WlREjPvWiX9EXHqd7UxkQLbC7TvRNGLezSL3nSU0sYS0mt7Y9ypp7peWvCaD998pOfvEuWZWPJT64n293Xkr9iPdnBzzo+qMURPl/H5/j1Xb8uwZ/nx0v8qraah9TW85Dva/I0L8Y/XajVXbvM86j0yK4W+6/x2Zz+3ErPHJti3SX4i/K4fje28QW+gAEYuBEDdUfXJvpSsqGFSz82Xouqf6saF1yVq57LSrJKiZDa6I2ek7ko3zp9lsz8MddYFt9oqq7k6izZMdGrJYzuR+yzdWQ5el7qk56rH/px26mzbdHfekaduo7tde9yPfd1fG69HoMpnTyvx0iLf2px1NKeOtePwZF9WONPc5LmBc0tUz7yvKP5carO1PNSWyVc5+adqblySs+az/NcLj+c+2KyUr9rNrbILLWfq6ckY+1nNf7W1o185k4YgAEYWISBupC5E70WL20EfMQvVcllSnr893xaLH3tgdUinT/uWdpkaLMTD21GLENy48eZ4m+rVS8ebpc3B3lBdj9c3/eWZR1Zjm2SvW6rZ27vZ0rwYlLsdj6r3Dr8zDJsQ/RTTBhzvTg+lsW5HhOX+Efjckk72iw/Fkf0aY0/zVOlhFHzkQ8lR5pTVFf+i2X+5ZXKLMtfXqZ6ehbbqr3m5fgLO81RPnStOnHeKo1ZbBPnO+mUfj3Tob7FdcDycz9UT880R+raX1am+v6xHXG9kr7SfF3qt9pHW2SfZetah+d2tff6p76oT9KV7a6NTcku9+GWZ/XrlvrQxbwJAzAAA4szUBfIRF/3zyVAatGPG5y4+bhEHm2WH6OlfUocbX+Mlh7zLckr8ad5KB9OVlTma/VDCZQTKs1XSkR0dpnnM8vMSZnL7RO1dcKouk5s4nPpi3LcVmc9t0z/Esx11c62O+ly3Tj3xj6qnv+0QDaovfsr+frFmvsr/br2LzijLdFG+8I+tg2Sq7JY133wc9+7T9HWeC0ZkmdbVWZf5rKo79bXJf5ubQP6mINhAAZg4CoG6o2Z6Ov+uQQ+bwa0uMfrS2TRZvnxWcOnxNEY47TG2G9BZo0/JUtKODQX2VbdO1nRM137vlamOk5eLKv2LM9/qqvEyl9opjnScnxWm5zAqZ1+sryYgKq95Nm+2I+YaOnayZ3ayD+619k2RDl+ls+lfquOnuvQ2W2yjmxDTFCj3ZZnWSpTW8ttsdN11zzX+FtTL7KZd2EABmBgMQbqgpjo6/4BRPzTwgBxBCctnKxVp8ZfThhzQhaTsHNlSqxiwqL+5CRG+vQWTPV8Lft0qK59kBMjP8/JVbSvliDaFiVXbvOO1tMTCWLWG5M12yAZTtL8LJ+znFjufru/WUeWr3vVPef/nEjXbIj2rH0tP6+tA/nMsTAAAzCwKgN14Uz0df8AJ/5pYYA4gpMWTtaqM4c/J1NO/JR0+GOOtbKcyKkvOcHJiVKpjX0g/dbrZzqrjT8+qnvV8xvBeK2ymHhFW+J1lF16npO5qH/KxpIc6XnuueceJ07R1min7XYyqXo6dJbcmJTXxiYnz7Gft76ew9+tbUMfczMMwAAMNDFQr8REX/cPkOGfFgaIIzhp4WStOnP5UwLjQ1/+osREyYrsmyrLiZXqOkG0LJ2V+MR+OiFSmf/20OVRV2wb28SkMiZeOWnLyanslT4fkpnryI7cL9WLyVzUb7un+h37E/vq/lhWtE264v/7GGXksYntonzb1essH/fSjV7mXhiAARhYhIG6ECb6un/mQqiNhH87rsXdX/wwVw71lx2Xtf1JHI01XmvzcGv58Hc5f0o8lbRp7i4llLceyxH1wd/l/I043tjMeMPALhmod+raiT7/dnYORKXf0vqjR+fkxN/Cqg8+Wtufk39pefwNuGTk+0vlTrXTRkc6SuXxN+Wlcp7VY2OOf8TfnPrUXc73+PI9d9MffricKc2hX/nKVx7/7SW+nOdL5r95/oIv/AUDMLBBBuqDcu1Ef23C6LdxdpwWbn9sx89q5/yxpFrdtctKtlzjn2vtJWGss3+tf2P7a+MoyuL6duO2F1/DH8z0ZBn+4K8nf+iGPxhYhIG6kNpE35LstNSZGsj48c1Yp/bWLNbTdSlJy3VudS9f5I+gZvuUxE29EVzaThLGOvtL+rsWR0vqQdbtxnQkX8MfXPTkFf7gryd/6IY/GFiEgbqQ2kRfSgaVAOljnz70Nd/+D441YEqGfMQ/yres+/fv3xWr3lTCqEQnfrRUCaQPXUcwckLmstgmvrG0HbLZh2yJ9WNCN6c/2e5oi8p0Lz2xb3pW8kOUpet4WJbl2d78EV/p0o/t4FyPhWv8o/G5pj1t1xubI/gW/uCnJ+fwB389+UM3/MHAIgzUhdQmeidXSso8GE6ufF9KgFymxMYJi2QpgXRyozqlREnPY7Kk+rGN5MX7UsKocuuVPN07SbMdTrpK9/ktYWt/Yn/dRmfZYn3xebyWje6Xk3K1kX3RHt0rAdbZst0u+sYyoh+iPq7rcTHXP7U4miuL+suOzRH8CX8w05Nz+IO/nvyhG/5gYBEG6kJKE70SlXwoSXnxxRfvEq+Y/ChxmXrDKBkxUYuJjwb3XML4/PPP37XPtsQkKCeMTpSijdIjO3TOCVgsK9mkZCwetf5IZ7TNAOtZtMfP4znaFa+lP8uM8nStOiVfTtkT9XJdj49W/4iR1rrUW8bn+PFdPy7Bn+YR/VziV7WLR56zSjJzG7c/N1eWZC3xzHPoX/3VX93NuVpLzsnNffD6cK7d3PI4589te4v6S/B3CzvR8e6cgS/wBQzAQGKg7pDaRJ+TwVIyFutooY8LZryP9WygF2iV+ZnOToJK+mI9XauOElbLKLWJSWG2I5ZJXrQp2q+yeJ/lqLz0TM9bF3vX0yZEP2qrs57r2j+uZ9mqE+12Pdmb27qM87v+XMIXtThaQj4ylh2vvflzCf7ivDLXP2rrOctzsO/PyYrz6rm6a5XbZtkiHfH/RazpvMZnNbmxLK9xsWwr10vwt5W+YAdzLQzAwEEZqA98baIvJUBaIPVjZ2pT4CRR17FM1y4rySolOWoT/+YwyrfOeC4tptmOKCPbUUsYs5xz/ZHs/Ba1ZF+0P15rs6LkNybAWabuSx9J9YZHNlum7NWP7znXY+Ea/9Ti6Bq5tF1vzPbk2xp/muM0D2iOmOrznHkqyyi1nZMEas6K81aWf4t72RvnStnj5HFKf6nfU3X1vEVmqX1eo0p1ej+r8dfbNvQzh8IADMBAEwP1SnMnei2SSgJ9OMHR81ymL7hRuZ7nRE2Dp4VQyU88nGDGwdVCHo+4kEt2TLDcLraJCWi2Iy/GulfSp3pz+1OyRXJiEim7Sn2M/ogbFz1Xf+MR+6+63mxlf6osy7J/ONfjYq5/ND5z21B/2TE4sj9r/Gle0Dyg+Sn6KM4reqOmeUl1VSeWaR5Xe5VZlr+8TPX0LLZV+zzvaY7y4fnKtkh2nNP0PNaP86XqSbee6VBb6dLfx+uIslv78Morrzy1hkiOZUmHfmyvz6V+qyzqlU2Sb3t17/7EetHHuf8q8zqayyzLNvU6q1+9dKOXeRQGYAAGFmGgLoSJvu6fuRBqkxE3F3HjMVcW9ZcdmzX9SRyNM1ZrctBLdom/mJCoXIe/uVplvpbNMSlSApY/xeDExDKdTKmtnrnc/Y8Jo+r6l3bxueoq6fIv6NxW9S3Pv7SzPtlpu9VWcl032jGnD6obEzLZIX36yfpto872xTuefScR1N/dl36Bmftds0967a+sX2Xuby6Ltt36Wj64tU70MefCAAzAwKIM1IUx0df9MxfGuAHKm4S5sqi/7Nis6U/iaJyxWpODXrJr/GlOUqKlBMP26V7Jh+917ftameqo3O10rj1zUqPkynWd8Og+z5GqnxMu25Zl5bbSYdvm9CG2c7/U3jb7WT6X+q06aqsjts86puzLfbQ8ta/5Jtt26/saf7e2BX3MxTAAAzBwEQP1Rkz0df8AHf5pYYA4gpMWTtaqU+MvJ4w58YhJyrkyJXsxEVJ/cnLlN3+q52vZp0N1ow9yIqX60qGz6kXbagmi7VASN7cPTkhtV27v5/mck75YLlv1JlSy9TzqyPJjH3P/de83sLkstou6e1xrbHvoRSfzLgzAAAwsxkBdEBN93T+AiH9aGCCO4KSFk7XqzOEvJxpKfPJHIJ0UxrKcsKgvOflRHclyYlhqE30QEyk9V30nSLqXHX4jGa9VFttGO2r9K9kT5WSd6of7ojL/RH1+pvNzzz33uI7kqm2ue84+99/13P+ab6INPa7n8NfDPnS+yy6+wBcwAAMTDNQdw0Rf98+EUx9vCijHf2KAOIKDnnPBXP6UzPh4+eWXHyc26sNUmd6a5b/1UxKjBDEeTjbtD9378N8fukwJVa2+E1nbJdt0nZOwnAjO6YPqWq5kR5t0rR/b6/NUv1XXR7Tdzy1ryj7rlwz5SmOjLySy3ujLKN/lvc6yt5du9DL3wgAMwMAiDNSFMNHX/TMHQi3m/m1wvJ4jg7rLjcctfUkcjTlut2RkTV3wdzl/SoSdlGnedlK35njtTTb8Xc7f3ligP7AAA8MyUDd87kSffxt7azD8m1kt7Fm3Fvr4W1fdx98c5/pL3uffeEu29JfsXEJv/nhSlrmm7qyLe94wwkB9nl3bP3Pn8bXtGUm+5m7Nl1/5yleeWD9G6kNvW+Gvb/z3Hn/0M/4wsAsG6p2YO9FvIWH87ne/+9RvgfVbYj3X338ombo1vKWPa/X8bTUJY537pfmYG0dL60febcd7a/6Gv2OPf28e4Q/+ejOIfhiEgasZqAuoTfSlJGgLCWP+T6YFiewqPb8VQNKvJC3qy39XI/vk01hnrWsSxjr3S/u9FkdL60Lebcd2BH/DH0z05BT+4K8nf+iGPxhYhIG6kNpEP5UwKvHRRz99xI9dKnHykb/gQPV8xDIlNz5i0qVr/dG/dPmjpk5YY0Lkj4NKfvxKdtVRfYGk6/v37999kYB0SZ7qyw7fxzeTqu/DuiVHdXTvw3+zGHUZXNslP7qd7XEd26y6fhZlRZ9Jp+5th79NT/exnuyTXa5ruZzrsXCNfzQ217Sn7XpjcwTfwh/89OQc/uCvJ3/ohj8YWISBupDaRD+VMMYESkmJk6Y8YCpT8qPnklX6uKgTQLeNyZKuoy7Vcf0sW9/e98lPfrKaMEY7JTvfO5nT2XZbp+tav+31WfVzghYTRtfL51wn+ileq53u5Q+dlYA6YYzXrqdEONuTdXNfj405/qnF0Rw51F1uTI7kS/iDm568wx/89eQP3fAHA4swUBdSmuiVaOTDiVtOppSsKJnSWQOm8njERCsmYaqrZEnl+XA9nSUvguCELeotPVOb2D5e284oW9eqY5tishV1KVlTMmZ/2Da1jW30PCeDrpvP1q3nU9duYz2yyQmj9NrPuZ7vOdfj4Fr/iOFrZdB+3THas38v4U/zhuaTW/tFenXk+dLP47x8K9vkB+lt/bMB1Y1Hnn+Xslt6evhjrv3yxdw21Ge+gwEYgIFNMVA3pjbRKznK/+9WXsBiMqUFPy6c8V7t8uaklJxFeJwcxWdRv8r//M///E6u7Ii2qI03Ab6OG5QoR+W2r2RTlqv6eqak0f3N8lSnNWG0fL0hlb/l92iTrv1jn6gNCeO7frF/ep1rcdTLJvRuh4+1x+IS/kpz1tp2Sr706tDZ+jxXak71PK15sPSpFLdZ6iw7NK9KnnRHu6Z0eB6eKl/q+a30XGvvJfxdq5P2x5nfGGvGGgZuwkBdSW2in5swxoVXg6vFzgnV1OKvNq6TgSgtlqrvBV2Luw7VU1snXjpbv+tmWVGO6urecuK1y0o2Rn25TckePZv6kW79jWVM0LPPdK8Nlc4xYYzPrTduvKZ08nx6POb6phZHc2VRf7lxOYova/xprtD8oqTM/ij9Ysxla59li3+sS3O55r74CzOXrXmOc7j0aC7VW8aaTie3qlur57IWma4bz3P1xLa3vq7xd2tb0Mf8CQMwAAMXMVBvNHeiz4lWXHC9CZFMHTkBUlsfU196o3L/hlmbCl978KN+63OdaIvqq73q+9r1dB/l+F71de36tlXJl2S7np/rbPnaFMRkT3Wlz4mm2kuO61uPz6qrI9poGXcFv/jH5ZLnN4y5nvRIr+taB+d6LFzjHw3PNe1pu97YHMG3Nf40V2hu03xpX3j+0BztI85Nno9UpjpqrzZqr3o+8vym53m+9BeXqe7zzz9/N0/qmRMzJ0Z6Ft8oSo9t0tlypEP30cY416nMh+2T3eqDD9uouvqxX+I8Lpmu53Kd5QfJtT9cprb+EjXpsWzr9JqndpKrQ3LkX9sf+yT/RD2xrGSX7ehxVl966EUn8yYMwAAMLMZAXRATfd0/rSDm5FXttEHxRqBVDvWWGY9b+5E4GnPcbs3JWvpK/MUEQ+U6nLQ4udEcJZtU18mVypSQ6Kwy1XGZkqCcrDgBcuKl+rr2nBjrS6Z+sfYnf/Inj3/BJt2eK22P26rM15aTbZcut9O1bXU7PbNePfMY6Dq/0Yz1oiy3sa/e8eY7/1qf+xDr2gb1Q899L9mW5TFRHV+rTPLcL5W5/7lM971/5IneNqC/PweMAWMAA0MzUDeeib7unznwa1H35iFez5FB3eXG45a+JI7GHLdbMrKmrhp/SuiUeMRkKSdDundyorMTGtmsa/2UEiyVx7nOyaOe6Tp+CsJ1JV9lmivj321bj+q5XOcsJ+o7Z59lSoYSrph0RR2SE+3zfeksmfZVLNdzHTr7edaRbY8J6pTfJUtlamu5ui7Z4PJbn2v83doW9DEXwwAMwMBFDNQbMdHX/QN0+KeFAeIITlo4WatOjT8lLUouYsKYkxMnJDkp1L0SOyUoOflxX5woyYb4hiwnR6qvuvqRXOnUx0x1Vplt0HVsG6+jDF3X7Itlquu2tjEma7E8Jnx+Hs+yc6qOfKSk1H3KOtx/y9O96srW+LYz2p7L1LZmg2Xf8lzj75Z2oIt5GAZgAAYuZqDekIm+7h/Awz8tDBBHcNLCyVp15vAXkxHZExOSXKbExG/llAzlN4Zqn5Mg97H0XPKUAFrPlOzY1kmV5VqG7mMSm+1zoqm/m1SZ6luvynIyF9ur3LZZr9vHxM5lzz333BNv//xJk9gP1Y19kQ4dOke7VC/6PZfJ7vi3nrah53kOfz3tRDfzNAzAAAxMMjBZcLfAMdHX/QNY+KeFAeIITlo4WavOHP5ikiV7cuKkpMaH3wAqaVFdJzkqd0LlhMZtlOyobkzsdK96MdlSuXTZhpgExbbx+pztJfvURrb6kDzrlD2xby6THPdPdf2TZUmm6kaf+Q2m2tgey5KvVa5DuuL/+xhlZL/HdlG+7ep9Vn9624D+dznFF/gCBmDgAgbqTht1otfC7d92b/E3rhcMFAtu2JiN5r9R42g0P2NveT6Hv7JfarwoUVTSprVEP3orqHOtDWVlP8Nf2S/wgl9gAAYGYqA+WKNO9PptrH87rcHI90sPkDYWUV+Un39DH8u4rvO3F/+MGkd78f/R+wF/l80zmtO/8pWv3L1N1NvAo3N0af/h7zL+LvU37fA3DMDACgzUnTriRJ8/2iSn9UzaeupeARg2TRe86RwxjmCnPjeO5B/4289YjsSdbYU/+DMLnGEBBoZloG54baLfaiIku+LfuwjOnET670puAe5W/XSLvqPjnfiqxRE+qs9B+Od6/8Df9T6Ew8t9CH+X+w7u8B0MwMBGGKgPRG2iLyVC+giP/lDfXyKQ/wBfbfxH/blMbX3o70X0MU/Vl6NiO9Xxxz/9tyX6EgAdaqNk0N9CF53sMj3Tda6jpFLP4kePpNfJ55QNlmebLOfOoJ//oy9OiF+eEG3ius7fXvwjFvbSF/oxHrPwN96Y7SnO4A/+9sQzfYHngzJQH/jaRK8EKidCSpr8jW9yqJIv3zu58xcH5GTMiZnb5YTSAxTl6FrylQC6XDrjvZ/HhNHP8jm3VRv1SXr8JTpqY71OLl1PZaof9es6J6dZL/d1Dkf3Ty2ORu8b9m+f3VH5i/NuXC9gbvvMxTEalb/YB67HYo7xYrxgYHEG6gJLE72SpHw4KczJUvwoaKmdk8JaOw16frvndnFDYThy0ufnStyc4PlZPkd58VrtctInm/UjGU4Y/XYx6ikl1lkv93UOR/dPKY5G7xP2j8PsqPzFOVa85fspBj0Px3XKa9RUm2ueM8fXY2FU/q5hgrZ1JvAP/oGB4RioG1yb6EuLpBb0+HYtJ4w56TIwtXYxcVP9eK9rydTZskp2qawlYVQ9b0pi4knCWOfEvudc9lMtjvBZ2Wf4ZTm/jMhfXDvMwtTc7nKfnTDGX9y5bI1zq11r6B5B5oj8jeBXbFxujsSX+BIGzjJQr1Cb6EuLpJKt+JtcLdi+V1Kn69IiHutp0CRbdXXWz9THVacSxlhf8kqbjyk43C993Na2Sk/rR1KVmMakWT6ZSpSnbOB5ncvR/FOLo9H6gr3jsVnjz/Od5sgtjW2e92Vbnsc1P2t+zXZfkjBKn/7+Pstqud+qD1tsv0WdGn+30I+O8eYsxowxg4HNMVA3aO5Er8W79UtvJDsmUmrrQ8mZyrQQC5pY5i+RUVkpYcybCrVX3ZhEKqGLuiOY3mzkcsnQR2F9xI2K5Pne7V3P9up51MN1nb09+Ucs7Kk/9GUsdmv8aV4r/S166zzuPw8wE3Gu1hyquVE6VD41h3oeX+LLy6THc7B/4WfbdJYu/TLSh2x85ZVXfHt39lwu2334F59RvsvyHC+98SjZEW3a+7V8sfc+0r+x5kTGi/GCgdkM1BvMnei10HqxvWYwtOBrEfZGY64s2aDF3u2WssvyONe5wT9P+mduHOG/J/2HP67zR42/qYQxJkhKeHzv5E5njYva+5dx8VplapcTSo9llOMkLs7Zahvv3U7PziVgThjVbx/+BeDUWjClz3pju7y+yCbLzz7QvXyns2Ud7awxOFqf6e91cxb+w38wsDkG6gbNnejjonrNYGvx9gblEjnagPgjpHkBv0Qebeqc4J+6f+bGEf6s+xP/zPNPiT/NsfnwnJsTovgLvFI7J4W1dhozzcXxUxpuF+drj+1UAjcnYZQMy/PZNrivfl7SJ13x0L2T0ShbMv2WNvtA8ltsth17PMuHe+wXfZo3D+Ev/AUDQzNQN37uRH9pwujfMMfFOS7IQFYfJ/yzbf/MjSPGc9vjOdr41PiLyY77lZOenDD6bZrr+1xrl5PCeK9rydTZskp2qawl+SoldZbrs3QpaXRfcsKY++L7kuxoq+tZT6vNsf7ermv87a2v9Ie5GwZgYKcM1AeWib7un51C8XjTRv+WGX/iaBk/wuNlfqzxF5Md+1dJT3wDp2TK9060Sr/Qi/UkS7LVTmf9+KOrKlPd+IaxlDDG+moTE1fbWjqXkrpSvZioyh4lo66na/lB95bncp19rXLVc+KZ+xl9YNlHO9f4O5ov6O9lcxh+w28w0J2BugFM9HX/ADD+aWGAOIKTFk7WqjOXPyVArV96I9lOlmS/2vpQwqcyJU25zF8Uo7KYuNkHpeQwJ2NK2qLu2FbP4+GEN9qnct2rnRNhP4v3Smzv37//OEl0Amn57oueS5aSz3jo3rYd8SxfHLHf9Jl5HwZgYEcM1AeTib7unx2BwIL+843eWuNJHK3n27XGbE9y5/KnJMqJ1DV+KCV9c+TJhvwmbwm75thA3etjdy5/+Px6n+NDfAgDMLAwA3WHMtHX/bPwYKyWsGBn33Ekjvr6/+j8z+VvqYRRb9b8Zu+SMdBbPr68bPzYmcvfJazQZnxOGEPGEAY2zUDdOCb6un+AG/+0MEAcwUkLJ2vVmcvfpQlj/BindOo4+scx1xrTkeSKg5HsxVbmaxiAARh4ioGnHjwxsTPR1/0DUPinhQHiCE5aOFmrDvzB31pstciFP/hr4YQ6cAIDm2agbhwTfd0/wI1/WhggjuCkhZO16sAf/K3FVotc+IO/Fk6oAycwsGkG6sYx0df9A9z4p4UB4ghOWjhZqw78wd9abLXIhT/4a+GEOnACA5tmoG4cE33dP8CNT+QjUQAAIABJREFUf1oYII7gpIWTterAH/ytxVaLXPiDvxZOqAMnMLBpBurGMdHX/QPc+KeFAeIITlo4WasO/MHfWmy1yIU/+GvhhDpwAgObZqBuHBN93T/AjX9aGCCO4KSFk7XqwB/8rcVWi1z4g78WTqgDJzCwaQbqxjHR1/0D3PinhQHiCE5aOFmrDvzB31pstciFP/hr4YQ6cAIDm2agbhwTfd0/wI1/WhggjuCkhZO16sAf/K3FVotc+IO/Fk6oAycwsGkG6sYx0df9A9z4p4UB4ghOWjhZqw78wd9abLXIhT/4a+GEOnACA5tmoG4cE33dP8CNf1oYII7gpIWTterAH/ytxVaLXPiDvxZOqAMnMLBpBurGMdHX/QPc+KeFAeIITlo4WasO/MHfWmy1yIU/+GvhhDpwAgObZqBuHBN93T/AjX9aGCCO4KSFk7XqwB/8rcVWi1z4g78WTqgDJzCwaQbqxjHR1/0D3PinhQHiCE5aOFmrDvzB31pstciFP/hr4YQ6cAIDm2agbhwTfd0/wI1/WhggjuCkhZO16sAf/K3FVotc+IO/Fk6oAycwsGkG6sYx0df9A9z4p4UB4ghOWjhZqw78wd9abLXIhT/4a+GEOnACA5tmoG4cE33dP8CNf1oYII7gpIWTterAH/ytxVaLXPiDvxZOqAMnMLBpBurGMdHX/QPc+KeFAeIITlo4WasO/MHfWmy1yIU/+GvhhDpwAgObZqBuHBN93T/AjX9aGCCO4KSFk7XqwB/8rcVWi1z4g78WTqgDJzCwaQbqxjHR1/0D3PinhQHiCE5aOFmrDvzB31pstciFP/hr4YQ6cAIDm2agbhwTfd0/wI1/WhggjuCkhZO16sAf/K3FVotc+IO/Fk6oAycwsGkG6sZpoufAA3jgeg8wEdbnGvyznn+up/fYEn784x8f2wEL9J74Xi++8S2+hQEYuAEDOPkGTj6hA85gAAb2wsC9e/cOM6f99Kc/PX3ve9876byX8aMfzEUwAAMwAAMzGcBhMx3GpuE9MAMzMHBkBvTC6Qj9V5L4ox/96PQrv/Irp5/97Genf/qnfzpEv48wtvSRORwGYAAGZjEwqzKLJckSDMAADBycgSMkjL//+79/lyT+3u/93h3vf/mXf8lbxoNzz+aS/SIMwMCBGWDwDzz4bPzZAMEADMxm4AgJ46NHj05///d//4Rv9MbxP/7jP554xvrBHgIGYAAGYOAADDDIBxhkNjgkBTAAA4sxsPeE8eHDh6f//u//Pv3SL/3SEz770z/907vnrBnsG2AABmAABg7GAAN+sAF/YgNE3+EfBmBgLgN7Thh/+Zd/+fQ///M/p09/+tPFufK//uu/Tj/5yU+KZXP9SH1iDwZgAAZgYBAGGKhBBooNCm+IYAAGNsHAnr8l9e233z49ePBg0s9/8Ad/cFId1g32DjAAAzAAAwdigME+0GCzySHhgAEYgIEJBv71X//17otufvVXf7Xqo+985zskjRM+ZD1lTwUDMAADu2Rgl52qLvaAzJjDAAzAAAxkBvR3i1/4whfOrh8f+9jH7hLL3/md3zlbN+vgHu5gAAZgAAYGZIBBG3DQ2KTw220YgAEYWJAB/d3id7/73Waf/su//Mvd3zqyfrCHgAEYgAEYOAADDPIBBrl5E4QviAcYgIEjMvDjH/9Y3+Uz61Cb3/iN32B+XTBxPyJ79Jk5FwZgYAAGGKQBBokNCRsSGIABGOjEgLJI1gn2CjAAAzAAAwdmgME/8OCzCeq0AYU55p2RGdjzt6SWxoWEkXgtccEzuIABGDgQAwz2gQabBJEEEQZg4GoGjpZAHa2/rInsi2AABmAABhIDOCQ55OrNFPJgCgZgYM8MHC2BOlp/98wufWNuhgEYgIGLGLioEUkVbylgAAZg4KAMHC2BOlp/2UyxL4IBGIABGEgM4JDkEDbBB90EwwFzAQy0MXC0BOpo/SUO2uIAP+EnGICBAzHAYB9osEmGSYZhAAauZuBoCdTR+suayL4IBmAABmAgMYBDkkOu3kwhD6ZgAAb2zADfkgrfe+abvsE3DMAADDzFwFMPSJh4AwEDMHATBn74w//UyxuOlTzw6NGPT0dL7tZY5DU8a8hFJvsPGIABGICBQRhgoAYZKDYsJHG7Y0Ab8T/8w9/mZyUfyL86SBqvW+fkQ9aJ63yI//AfDMAADAzNwNDGs4iTRMHAwAxoI07CuF7CLP/+zd98TieSxiviRP5jo8NeAQZgAAZg4MAMMPgHHnw2QVdsIuHm+rlDG3ESxnUTRvmXpPE6VkkYr/MfcyX+gwEYgIHhGRi+AyQ9JD0wMCgDJIzrJYtKFKN/SRovX+tIGC/3HZtEfAcDMAADu2BgF50gYRg0YWASOXb8xYSGN43LJ4/Zv0sljUf7m0gSxmPPU6xTjD8MwAAMkGiQbMIADHRiICc0JI3LJo0l/y6RNB4tgTpaf9kYsTmGARiAARhIDOCQ5BCSh07JA+NwvFgsJTQkjcsljVP+vTZpPFoCdbT+Mhcfby5mzBlzGICBMwzgoDMOIoEkgYSBlRgoJTRf+MLvnn7wg38/fec7D574Qpy/+Iv/dfdcZ5LKtqSy5F/77pqk8WgJ1NH6y5rIvggGYAAGYCAxgEOSQ0gOVkoO8DOxlhkoJTROGFX29a//5ePkkISxLUl0Qqhzyb+x/NKkUXLzWO75/mj93fNY0jfWIRiAARi4iIGLGh1qswBYMAID6zBQSmiUMH7ve/92+ta3/vH0k5/818lvFOckjF/+8v85ffvb//w42YxJ0pGuS/7N/b8kaTxaAnW0/jLfrTPf4Vf8CgMwMDADDN7Ag0fiztvQoRkoJTROGJX06WOpDx783V3ilxNGlb/99k8l4u5wPb2VjEfpeUxEcwK1p3v5oaU/c5NGviWVdZN1EwZgAAZg4FAMHKqzQ2+uCUxY3RsDpYQmJoxKEn/0o++flBzGhDE+V0KkeyWB/girzvFvINVeby0lW/VVrr+T9H1LUjVinW9+8+sxdz57/ejRj5kjC7+EkuP2Fnv0h/UEBmAABmBgBgM4a4az2DQUNlP4jxi6lAFtxHMiFhNGlekNoZK7v/7r//34S29KCZ/qxbeJMWHU83wc5S1j9m/tXj66dCz33A6/MMftmW/6Bt8wAAMNDOCkBiexiSJRhIEVGNBGPCcwOWHUvRLGN97426sSxphAZp3cv/OFOiRG5fUQv5T9wtqJX2AABmDgMAwcpqNs+FfY8DNRED/XMNCSMCqZ898r+q3gJR9JVVvJITmc/rZVEqNyPOOXsl+uiX3a4lMYgAEYGIqBoYwl6SPpg4EdMdCaMCrJ0xtCJ4wxiZQMHf44qsr8N43xuT7GGg+/cdTZf8+oOvoinaMmlvIPC/jTayJ+edoncIJPYAAGYOBQDByqs2yGdpRsMFGNH7vaiPPGb/qN361905oY8S2p48ce8ydjCAMwAAMwMIMBnDXDWSScJJwwsCADJIzbSRaVnLYmjK319jK3Hq2/exk3+sH+DgZgAAYWY2AxQWykF9xIAzhcHoEBbcRv/RYNfdNJamti1FpvLwwfrb97GTf6wToKAzAAA4sxsJggEkYSRhiAgVkMaCNOAjedwN3aN62JUWu9vSzUR+vvXsaNfrC/gwEYgIHFGFhM0KyNIgOI32EABrQRv3VShL7pBLU1MWqtt5cYP1p/9zJu9IM1BgZgAAYWY2AxQSSMvF2CARiYxYA24ntO4OJ//6FvXv3Rj75/9w2uW+1za2LUWm8vC/XR+ruXcaMf7O9gAAZgYDEGFhM0a6PIAOJ3GIABbcRz8vSFL/zu3X9zoTIf/u80Rki6Yn/0X33E/+4j38e6+Vp1/V9/5LK17uXvlrjkW1KJ3RZOqAMnMAADMLAbBnbTkaaNDuAy3jCwHQaUoOTkxwmj/k/EXDbSvfrxve/92xP/p6MSXj1T2Rb70powHi2G8Mt25oyjsUd/YQ8GYGAjDDAQGxkIEl4+znk4Bq5JGJV06Q2cPva5xeSr9Da0lETadiXI8W2kn9/yTGJUXg/xS9kvrJ34BQZgAAYOw8BhOnq4zThBDNtbZ2BuwhiTMF2//fZPT6U3kUq8vv3tfz7po6w6VE/1nXypjQ9/3FVlSuh+8IN/d9GdDCWlfiMouT6iTMnWm8Nvfesf74pVTzoky22tW/KyzVGuBKhcz+JHUqdsVr3YV7e3vql2LtfZ9qvt1pnpYR9+YS7twR064Q4GYGBDDDAYGxoMNmu8ZTwUA9qIx8RF1zlpUx0nXkpsWr44RklUTASVNPneyZETOZVZfk7SlLC5LNupdk7oJFMJpNq7Xiz3M51LCaOeq21sH205Z7P7JjmxP7V20SbbL18zHz69JuKXp30CJ/gEBmAABg7FwKE6y2aIhAwGNsSANuIxcdG1E0YlPrlMiU1rwuhkzjL994RKxPKhhOtv//b/vUsOo96ccOW2TiZLdi2ZMGa9st9JYkws1Vd9RFd26VxrF31r+yWXDcDTayJ+edoncIJPYAAGYOBQDByqs2yGNpQsMNEQe9qIx8TFyZ0Snpi4uY4Tm3N/t5iTKCWhMWGMyaRllxLVmDDKHieIahPvYz3LKz1T2SVvGHN/rENnlenHz3LCWOqr6/psW1sTI74lldhl/oYBGIABGDgUA4fqLAkjCSMMbIiBNRNGv4FTUqTkzvdKjnStsxMmn5VcxQRLiZiTxJy0qZ7LnHD5Y66Sp2f5bWhMXK3T55z4RX01m3O7mDDW2lmvbVVC3Zowttbby2biaP3dy7jRD/Z3MAADMLAYA4sJYiO+oY04AQLXIzCgjXhMXHTtN30q8xGTPSdhSoaW+NIb6XCSmHUridKPnucyfcGNy2SLr90f1dczlfmZrm2/n/ns/sgeJbgxYVQdPYuHba4ljLV21quz7Zf8Fm5a67XIGqHO0fo7wphgI2scDMAADNyUgZsqa9qMAABjAgPHYEAb8Zi4nLuuJVyxbU6iYtmcaydSSv7mtHPdnPQtZZflL31uTYxa6+0ljo/W372MG/04xjrCODPOMHATBm6ihESRt48wAANPMaCN+JykpzWBWyox01s8v8mbY6fr6uOheqMou1uTXbftcW5NjFrr7WURP1p/9zJu9IP9HQzAAAwsxsBigp7aDDJI+BYGYKDGgDbiLYlR/DioksFzbS5NGPPHPv1R2HP69lLemhi11quN/UhlR+vvSGODrawxMAADMHATBm6ihGSSt0swAANPMaCN+F6SrT30ozUx4ltSWTfZoMEADMAADByKgUN19qkNK7Az/jDQjwESxt/eVMLcmjAeLWbwS7854mis0V9YgwEY2CgDDMxGB4bkljdyu2eAhJGEcYT5l4SRfcIInGIjnMIADKzIAM5d0bm73/DjO+LnGgZIGEkYr+HnVm1JGJnnbsUaemANBmBgowwwMBsdGJJN3jDungESRhLGEeZfEkb2CSNwio1wCgMwsCIDOHdF5+5+w4/viJ9rGPjhD/9Te3GOjXhA43HNeO61rYZnr32jX8zhMAADMAADDQzgpAYnsVngbR8MwAAM/IIBviWVdZN1EwZgAAZg4FAMHKqzbPjY9MMADMDAlQwc7Y3b0frLJpB9EQzAAAzAQGIAhySHsJm8cjOJP4kpGNg3A0dLoI7WX+J33/HL+DK+MAADFzCA0y5wGkklSSUMwMBhGThaAnW0/rImsi+CARiAARhIDOCQ5JDDbgLxA7EAAzDQwsDREqij9beFAeowV8AADMDAoRg4VGdJBnkrBAMwAANXMnC0BOpo/WUTyL4IBmAABmAgMYBDkkPYTF65mcSfxBQM7JsBviV13+NL/DK+MAADMAADiQEckhxCwkjCCAMwAAMw8JgB3jCyT2CfAAMwAAMHZwAADg7A400RfiAWYAAGYOBpBkgYn/YJnOATGIABGDgUA4fqLMkRbw1gAAZgAAZmMUDCyD6BjTEMwAAMHJwBADg4ALM2TviKeIEBGDgaAySMMH805ukvzMMADCQGcEhyCAkUbx9gAAZgAAYeM0DCyD6BfQIMwAAMHJwBADg4AI83RfiBWIABGGhhgG9JhZMWTqgDJzAAAzCwGwZ20xESH94IwAAMwMANGDjaG7ej9ZcNHvsiGIABGICBxAAOSQ5hw3mDDSc+J+5gYFwGjpZAHa2/xOa4scnYMXYwAAMrMYBjV3IsiSeJJwzAwC4ZOFoCdbT+siayL4IBGIABGEgM4JDkkF1u8OgjnMMADCzFwNESqKP1dylOkMOcAwMwAAO7YWA3HSHR420ODMAADNyAgaMlUEfrLxs89kUwAAMwAAOJARySHMKG8wYbTnxO3MHAuAzwLanjjh1xx9jBAAzAAAxcwABOu8BpJJUklTAAAzBwEAZ4w8g+gX0CDMAADBycAQA4OABseg+y6YVz5joYuIwBEsbL/AZv+A0GYAAGdsPAbjpC4kPiAwMwAAMwsDgDJIzsE9j0wgAMwMDBGQCAgwOw+OYKfxJTMAADe2KAhBGe98QzfYFnGICBCxjAaRc4jSSLtxgwAAMwcBAGSBjZJ7BPgAEYgIGDMwAABweATe9BNr1wzly3FAN8SyosLcUScmAJBmAABoZgYAgjSWpIamAABmBgIwwc7Y3b0frL5o19EQzAAAzAQGIAhySHsCndyKaUcSE2YWCbDBwtgTpaf4m7bcYd48K4wAAMdGQA53d0PskpySkMwMBwDBwtgTpaf1kT2RfBAAzAAAwkBnBIcshwmzfsh2EYgIFbMnC0BOpo/b0lS+hi7oIBGICBIRgYwkiSON7CwAAMwMBGGDhaAnW0/rJ5Y18EAzAAAzCQGMAhySFsSjeyKWVciE0Y2CYDfEvqNseFeGFcYAAGYAAGVmIAx67kWBJPEk8YgAEY2AEDvGFkn8A+AQZgAAYOzgAAHBwANrQ72NDCMPMYDKzHAAnjer6FW3wLAzAAA0MwMISRJDUkNTAAAzAAA10YIGFkn8CGFgZgAAYOzgAAHByALhswfE7cwQAMjMIACSOsjsIqdsIqDMDASgzg2JUcSyLG2xAYgAEY2AEDJIzsE9gnwAAMwMDBGQCAgwPAhnYHG1oYZh67JQN8Syq83ZI3dMEbDMAADHRnoLsBJCwkLDAAAzAwEANHe+N2tP6yMWNfBAMwAAMwkBjAIckhbFwH2rgydsQvDNyegaMlUEfrLzF1+5jC5/gcBmBg4wwwQBsfoF0msF/+8pe1B+PAA3gAD2zeAz/72c82byMG4gE8gAdG8ID2f+y7h8y9hjQa2AZ/C6hJjQmD2IOBMgNbj4+t2wdXZa7wS9kv8Fz2C7zglzUYIN6G5WpYw0k4Bk4amTCIuzUWor3I3Hp8bN2+vXBAP24zT8LzbfwMz/hZDBBvw3IwrOEkjCSMMDAwA2wepuferS+oR/uWVFidZnUPvtl6vO3Bx/Rh3zE0Z3yJt2FZGNZwkoWBkwUmDOJuzgJztLrEB/FxNOZ79pd4I9568nc03cTbsPE2rOEkjCSMMDAwA0dbJOf0lwWVdWkOL9S9jhfi7Tr/wR/+m8MA8TYsL8MaTrIwcLLAhEHczVlgjlaX+CA+jsZ8z/4Sb8RbT/6Oppt4GzbehjWchJGEEQYGZuBoi+Sc/rKgsi7N4YW61/FCvF3nP/jDf3MYIN6G5WVYw0kWBk4WmDCIuzkLzNHqEh/Ex9GY79lf4o1468nf0XQTb8PG27CGkzCSMMLAwAwcbZGc09+tL6h8Syrr5hyet1536/G2df9hH/PBHAaIt2F5GdZwkoWBkwUmDOJuzgJztLpbj4+t23c0XujvdfMpPF/nP/jDf3MYIN6G5WVYw0kYSRhhYGAG5iwwR6u79QV16/YdjRf6e90+Bp6v8x/84b85DBBvw/IyrOEkCwMnC0wYxN2cBeZodbceH1u372i80N/r5lN4vs5/8If/5jBAvA3Ly7CGkzCSMMLAwAzMWWCOVnfrC+rW7TsaL/T3un0MPF/nP/jDf3MYIN6G5WVYw0kWBk4WmDCIuzkLzNHqbj0+tm7f0Xihv9fNp/B8nf/gD//NYYB4G5aXYQ0nYSRhhIGBGZizwByt7tYXVL4llXVzTzG59Xjbk6/pC3MH8TYsA8MaTrIwcLLAhEHcsXGYZoD4mPYN3OCbpRkg3mBqaaaQN80U8Tbtm41zM6zhJIwkjDAwMAMbnxi7ssWCyrpEfNyOAeLtdr6Ga3xNvA3LwLCGd93QMeldxw0TxnX+g799+4/42Pf4Er/bGl/ibVvjQXzsezyIt2HHd1jDSRgHfrvEhEHcsSmYZoD4mPYN3OCbpRkg3mBqaaaQN80U8Tbtm41zM6zhJIwkjDAwMAMbnxi7ssWCyrpEfNyOAeLtdr6Ga3xNvA3LwLCGd93QMeldxw0TxnX+g799+2/r8cG3pO6bv6PNL1uPt6ONB/3d9/xCvA07vsMaTsI48NslJgzijk3BNANbj4+t2wdb02zhm6d9A89P+wRO8MlaDBBvw7I1rOEkjCSMMDAwA2stRnuQu/UFdev27YEB+nC7vQk8387XcI2vibdhGRjWcJKFgZMFJgzijo3DNANbj4+t2wdb02zhm6d9A89P+wRO8MlaDBBvw7I1rOEkjCSMMDAwA2stRnuQu/UFdev27YEB+nC7vQk8387XcI2vibdhGRjWcJKFgZMFJgzijo3DNANbj4+t2wdb02zhm6d9A89P+wRO8MlaDBBvw7I1rOEkjCSMMDAwA2stRnuQu/UFlW9JZd3cQ5y5D1uPN9vJmbjbAwPE27AcD2s4ycLAyQITBnG3h4VvrT5sIT6UFP7ar/1a8zz7wQ9+8KQ273vf+5rbrOU/5DK/zGFgC/E2x17qwvfIDBBvw/I7rOFsSkgYYWBgBkZe8Na2fQsL6qc+9anTl770peYY+9znPnf69Kc/3Vx/bR8in7W9lYEtxFurrdSD69EZIN6GZXhYw9mYDJwsMGEQd6Mvemvav5X4+NrXvnb6+Mc/fnau/dCHPnR66623Tu9///vP1l3Tb8hmXrmEga3E2yW20wbmR2OAeBuW2WENZ2NCwggDAzMw2iJ3S3u3sqB++MMfvksEP/CBD1Rj7Ytf/OLpE5/4RLXOLf2HLtb1OQxsJd7m2ExdGB+VAeJtWHaHNZzNycDJAhMGcTfqYncLu7cUH5/97GdPn//85yfn24985COnb3zjG5Plt/AXOphPrmFgS/F2TT9oSxyMwADxNiynwxrOBoWEEQYGZmCEha2XjVtaUN/73vee3njjjdNHP/rRx/EWvyX1q1/96uljH/vY47JePkMva/mlDGwp3i7tA+3gfxQGiLdhWR3WcDYoAycLTBjE3SiLWw87txYfShaVNCp5lD9snxJFJYw9fIRO5pClGDDPS8lDDmzCwDQDxNu0bzbOzbCGs0khYYSBgRnY+MTYla0tLqj6WOpnPvOZO7/YPn0UVR9JZSxZR0dmwDyP3AdsJwZHYYB4G5bVYQ1nkzJwssCEQdyNsrj1sHOL8aEvvtE3oeqLcHToS270ZTc9/INO5o8lGdhivC3ZP2QRL1tigHgblsdhDWejQsIIAwMzsKUFbGu2bHVB1X+xof9qQ4eSR/13GlvzHfawps9lYKvxNrcf1If9ERgg3obldFjD2agMnCwwYRB3IyxsvWzccnx86Utfknmnz33uc8zBA8/Bvdjeot4tx9sW/YVNrN/XMEC8DcvPsIazWRl4s8KEQdxds+Dsve2W4+O3fuu3Tt/85jdPH/zgB5mDB56D9x5Dc/q35Xib0w/qsq6OwADxNiynwxq+ymZFIHPggRE80GNhGMEv2IgH5IEe8dGqkxHCA3ig7oHWWFqyXt0iSvHAfj3QGEckjNFRwiHecw0fW2SgF6e99G5xDLBpu3PD1jndun2wvV22jzA2veKjl94jjCl93O6cMoP77XaiB2AzHEdiycexujHQi9NeenvMBegcd23YOqdbtw/2x2V/D2PXKz566d3DmNGHceeMGdyP28k1AJ3huG7Jwhr9RuZYcdCL01564XMsPnuP19Y53bp9vccP/ceO917x0UsvvB+b997jP4N7BioO1gzHkTDyhrEbA7047aU3xijXzNnnGNg6p1u375x/KScG12SgV3z00rumL5FNrJ5jYAb3ODM6c4bjuiUL0V6uj8lvL0576YXzY3J+6bhvndOt23ep32lHnC7BQK/46KV3CZ8hg9i7lIEZ3OPk6OQZjiNh5A1jNwZ6cdpLb4xRrpmzzzGwdU63bt85/1JODK7JQK/46KV3TV8im1g9x8AM7nFmdOYMx3VLFqK9XB+T316c9tIL58fk/NJx3zqnW7fvUr/TjjhdgoFe8dFL7xI+QwaxdykDM7jHydHJMxw3VML40ksvqWtPHK+++upqfXj99ddP0hl9W7p+9tlnTw8fPnzCrjfffPP0zDPPTLZ94YUXTm+99dZJbeN1Sf5en8lhPfrWS+8afRX/+Whh9hJbxPODBw/ueK21L8WpbFSMiPfc9qj8Zz/ke/ksP9vS/dbtq/lKLGuOjscUnzU5rWViXLFTWxMkayrGFFNaj1r1tdRTLMoHpZicai8b1lxzp/SO+LxXfPTSu9YY3XKNa41T9VVxE/d9jx49Ors2Zh9FfZKnPaGe5Xrcn8/xZnB/XtiRHD7DcUOBqUXzXCK25DjPSRjnBromBSeMS9o8kqxenPbSu8bYaDFdeiM5ZefUZnaqvp63xlBNxlHLts7p1u2rceOEca1frmTdcWOYy+L9VIxtJWGMtnJd33f2io9eetfi4ZZr3Jw41V702vmjVd9avt2T3Bnc1wN3T05p6csMx+0+YXzttdcu/o1N62b3kt8MkTC+R5h24a+X3pbYnVtn7mKqDam4nvNWwTZNbWZdXjq3xlCpbXymeFEsx2d7v946p1u3r8bHJQmjNoeKt5rcqbLWjeFUjO0pYTxKLPeKj156p9i/9vncNe4avlq+Apw5AAAgAElEQVTj9JI9X8kPrfpKbaeeXTNPTckc4fkM7kkY44DOcNxFi1/UdctrBcLUG0ZNKvF45ZVXnvjIkT9upADVRwd8xA2A5PtQ/fwbJG1+fVie+l+bPKK++JEFPfcbxnid+zHV31v6fS1d8uVasmtye+mt2XRp2dRi6g1x5PXP/uzPnvgIjdmKzEVGZVMsE69qI15VlnVYXuxLThjVVh/Nu3///p1pkh/5VyzFj/lIpmI5HmojHWrnWM52RxtGvVaft2z71u2r+c7sas7P9eI6oD6KtxgHeuZ2U2uC5auuDjEfP5KadVie2qmeY8y2qVy6fB/tiew7viTDh+pGO3UvOYo1xZd+EeMj6tD1yy+/fBePXu/0zO1zH/28JNdzQ+632+Tn9of7O+JZPu1hdy+9a/VVjEQurWfOWiEZPmK8ZIZznMY1Ru3Nq2yQTebaNvkceXbsqKymT/2Jn1SLuqPNpRi3f2I/Za/jSOU+oj22dw9n9a+xHySM0VEzHNfq4E3Ui0Fo+PXMC5TO0Q9Ti6/rxHZTweqAy5OW7j1ZqG3c5Mo2BWiUL50K9FKSGJ/bNp0lI05QsWwP17047aV3jTHLC4QXFnHrRSTqzUzGMl3HdplLlVm+6mY+dZ916t4xpDaSKRmR66hHz2OZ7Yt26VnuR5ThNqOft87p1u2rjX/euKkvms+ff/75YsImWVNsWk8s13WMBV17vcis6l7rh84lu2SbjijPOnWOsSEZii/HXOnea5DXLcebdfte+vLmUs9iufW4re6n5LquzrEvstE2qT+6tz9iP0e71pj1sLmX3rX6Kt7i4TVIz81i1J35imW6juVqH1nUteNUHMcEzlybY8mybbZJz8Rv/uWQZbbqky610dkyHSM5prOd0qEftbONsY8qsz2us4fzDO5JGOOAz3DcY6hi+61eK1CnQFdA6IiBokUs/7bWwXZX+ef/ONBLsiVTz+NiaN/EgM4B6zpqmw/rkx1xAvC126ofMcj9fE9n+aZHf3rpXaOvU5yISW26zJt1R279TDLi4RjLsmM8lZjPC6XkO4asK3Jfeub4zBtVxVKMh1psWe7o561zunX7auNfmtNd3/EQeVOZnuvH9XRWnXjoviQ7xkaOK8vxWpPXLJVn/m2jdTtmc3zleI9xG6/dp6hHfSn1V8/UVjGaD5fFjbZk67llRR0uy77WverZrhHP8k0Pu3vpXauv4ibzIV2ta4XqSkY8FC/65ZDOkbMYp3ruuHLfIsd+prPqeq3NuqRXsfLiiy9W9cV4lLx8WH6OcemP8RJtLM1F0qN+6Rz7MPq1/NXYBxLG6KgZjmt18CbqlQI49lvXDlbVjRtclcWAzPcl2Q7Cc0GX5dqmkkyXxaCP1yqvtXP7PZx7cdpL7xpjJt5Li6l1mV0nYHmxyKzF+yw7xlOJ+bjYWr9jyPelOpl/1ZV82ewFW3bFfkY7LXtv561zunX7ajw4LsTRVD2V6VAcqI7OvvZ9ZNLxUpIduXe9qNdxEmMslkf+M/vxPupR+xzvMW7jtXVFPbbJZTrrmewvtXW9rFPP1UY/uo46XBb9qGcl3Xo+0k+v+Oild62xKcVL1CXe5qwVjpclE0bZY2an7D03L8SYso1qE/uq6xzjUbeuY6yVdJbiM+sY8X4G92NNJGsPxgzHPQXj2rZdI78WRFGuAyYvvnljKnnxtzaadFRHsjwJqY7u8ySge29mY6BHO7KMWBZtmbqO9fd43YvTXnrXGMPMZUlHjIO8WOT2WvTMtdh3oim54jTGiOqqvXXqXj++11n3jiHLiB/X8bP8hl3Po62SEWXXYktt9/CzdU63bl+NgdJGqlQ/cifWM+++tzwzqrOvJVf1HFdxvldZjKsYq9GebEeUresoO8ZXjCHJ073f/jmGch98L7kxdtVez2J5tMP2Zp16rjZuF/uispo/LHPEc6/46KV3rTESNyXOor7IXOYrt5csx4uuo2zVdVmMFelyvOSYcJnjKsZztFHXrfpquiQ/xrjl2i71QT/Wnfsf++g6ezjP4H4fG4SlBm2G4x5DtZTuNeUoIPIh+B1cLoubXJXr8DPf65mCTj8KQNkd5au+Jg4HocoV7D4sT8/zxBJ9INlKSn14MtJzb5LjddShNlFPlLuHa/WvRz966V2jr5Fn9UuHmI0s61lcFM2YWPRvWVVHh76MJi5GUb54VRvHizfJ77R852/A9Cz2U7piDKltlK+6kf+oT3J1rzoxxv1M7UqxFfWPfK3+b9n+rdtX811mV33RXOuPjeleh3+hKFmRNzEdmVQ9xY7jLMv3WuP4yPHpGFF5XJPcB5VPyY4xm+NLNipmdZYsnb2x1bVk+guo1F/rUF1d2y7boWeOv9xH+yrrVFu1cTuVy9c6/GzKH9Y74ln962F3L71r9VWM5EO85OdmKfOVOY3xkstynMaYlw0lHbYtxkrm2XFV0ye7HZvyZdYd9455DY2xGtvZJpX72OueUv1rZJCEMTpqhuNaHUy9nwdw9DHX1/ujF6e99MLM9cwcyYdb53Tr9h2JFfq6vbmlV3z00guD22PwSGMyg3sGKoIxw3EkQSSC3RjoxWkvvTFGuWbOPsfA1jndun3n/Es5MbgmA73io5feNX2JbGL1HAMzuMeZ0ZkzHNctWYj2cn1Mfntx2ksvnB+T80vHfeucbt2+S/1OO+J0CQZ6xUcvvUv4DBnE3qUMzOAeJ0cnz3AcCSNvGLsx0IvTXnpjjHLNnH2Oga1zunX7zvmXcmJwTQZ6xUcvvWv6EtnE6jkGZnCPM6MzZziuW7IQ7eX6mPz24rSXXjg/JueXjvvWOd26fZf6nXbE6RIM9IqPXnqX8BkyiL1LGZjBPU6OTpbjOPDAlj1w7969O/Mit7e63rJfsA0PyAM946M1DhkpPIAHyh7oGb9li3iKB/brgZnxRsIYF3lhEe+5ho8tMtCL0156tzgG2LTduWHrnG7dPtjeLttHGJte8dFL7xHGlD5ud06Zwf12O9EDsBmOI7Hkbxi7MdCL0156e8wF6Bx3bdg6p1u3D/bHZX8PY9crPnrp3cOY0Ydx54wZ3I/byTUAneG4bsnCGv1G5lhx0IvTXnrhcyw+e4/X1jndun29xw/9x473XvHRSy+8H5v33uM/g3sGKg7WDMeRMPKGsRsDvTjtpTfGKNfM2ecY2DqnW7fvnH8pJwbXZKBXfPTSu6YvkU2snmNgBvc4MzpzhuO6JQvRXq6PyW8vTnvphfNjcn7puG+d063bd6nfaUecLsFAr/jopXcJnyGD2LuUgRnc4+To5BmO213C+MILL5wePHhweuaZZ4p9e/3110+vvvpqsUw+VLs333xTLnzqqLWL/t/6tfox1Zdnn3329NZbb53kx7X7IQevraMkv5feki23fkZ8nF8rjh4frUwSR6wzNVa2Ekc1G9cs6xUfvfSu6ctW2axv46xvrWPaWm8G9+ed1Kp0D/VmOK7Lhn1NH5+bMOboXlLWHL1r160t5GvrjvJ7cdpLb+x7r+slmV5SVi9/lPQePT5KPik9I46mE8aSv6aeEUf73L/1io9eeqf4vuXzJWNpSVm39ME5XVtZ387ZObd8Bvf7nHDmOsz1Wx332muv3eRNku265qw3f3o7qDdgNTlzgvyll16afNMmHXNk1Wy6VZns1Zie07eVCaOV03P9mVveqpf4ID7msrVk/VZOl9Q5R1arfcQRcTSHq73UbY2Ppfvbqpe4JC6XZq+nvFbuf24jCWP0wTnH5Y9dPnz48C4RUzKmax9K0CxX1/fv3z89evTorlj1lHDFeydzSlz8XJWVoFiO2viQDE1aeuZy6fExZZc+Mqo+ZD2S4yRPH0v1kfthe/Tcsqw/ni1Luvw867Qs9V2y1B8fkq9yH9GOKTnSU/NRHjvbH9tIn+2KzzUm0qsy2RnHWvWkW/04+kdSs4+nOIzjqWvi451fspRin/iYv0Ypjj3vbPF8zj7i6J11T3OD5+nSOLLOzI+Nkh+39uxcfKxl7zm9xCVxuYX939L8n+M+6NvnhBM6OGvj0OI4TRpKqrRYlfTk8rzole6dpER53ijqnJMRJ01OVtRect1e915ooxyVZ1luk2XmepJfstPt47m0kMfyaJOulVhYdul+KhHLcmK93J9sv+7tM/nR17JTbSVL8qPdstFJkJ6rXfRz1B/bLX3dwunSOiWvRW/mP9uRy+V3+1B1S/dmI8qaM/ZqH8dX99YZ5Ui+7kvjmHnK9SS/ZGe02dfEx7rrTgunHose5xb7cpxkO3N5KW7MuNpO8Rn5z0xn5omj82tx9rPu9aMxGG2dyczd6r4lPtawpUVvjrtsRy7X2Oc4zPeldYO4fCc5zXNS9PccHxGX02tuC/e/8Pu0kDgwR7kuOU6TvA8Fdp4Q5BuBG986qb7aqSyDKhlxgtC1FxQv0NbnN1sxMfFYqI2eyx5NQNZne/RMdsWgUllJlp5Ld06SrEPluR96NvVT2hBP9U32xQ169m/u35ScUr9sf9bh/vpLftRWdd2fOCZ+pnN+Hn1b0hHbLnktPpaU1yqrpFe+8yH/5PGTbPmG+Hg3XoiPd33Ryt6ceiVO57Rfu27JPuKovF7WxoI4WjeOar5fs6wUH2vqs+ySXuKSuDQfW9n/2Z6lziXuJ2Tvc8KZ6OzZTXaL4/KGOCc0+d5Ji20SdPqJ96qTE454r0kr/lZKbS0361OZ2l6SMDqBsm3WYX3RbtcpnfNCHvui+vE+2qqymn9juyyn5qPcTm2jjWqrvuq5fvLEEJ9HH0TbSzrcbulzC6dL65S8Fr218ZOMzGtkTOXyb/SxxyL7N97Xxj7rk448bo4VlZVk6XnkRff6ibbrOtrtOqVzlhX7ovrxPtqqspp/Y7ssp9Qv25/bqW20kfhYdp0kjp780htzKO6Io6fnwDgHlGJVftvTT0t8rNHfFr21+Vc25fUmsq1y1jfWtzXYvUZmC/e/kL+vieYap6lti+PyhJEncG209GZQmyzJbJ0w1C6+4VN7v2FUmd7Q6CyZ0ql76/Cm2v3XvRPMuNi4bXyj5zaSvVbCWOtbti/7N07ANTkqq/kob0R0rx/1P2+Isx77KE/20XZdl/zqtkueWzhdUp9ltejN45f9It8SH0/GWuYtxn5kTOOQ/Ut8PL2GtXBqpnucW+zL40wcPT3Oipu4ZhFHT/uoB9/X6myJj2t1lNq36CUuzzNGXJ73UYm/Xs9auP+FbWN1bG2HtjpOiYMOJShayLXB86FETYuYk7nWhFF9s1zJkgz9KPhUFnVIr/RYh8qlx4ftsr9c5iQyylIb3ecgt0zrkAzZ5+eWZR3xXJI11bc5G2LpmJKjstiv7CNvrO2jaL9sUH0d7mPU48Rdz1wufdF2XZMwvjOf2HfmMI6L/E58PLnRrXEdGVO9vGEx145T+14sz5lDLEftdBAf662N8q/G8tyPx5I4evfL06LPWGfOMxT9Ncp1a3ws3Z9WvcTlk3+XmceBuBwrLlu5//k4j9Wxte2d4bizi/3atuZEdG19I8rfq496cdpL7yXs7XXsL/HFVJu9+mjrnG7dvsjLXhmJfbz2Gh8tu4/sFR+99F7CH8ydZw4fnfeR2JvBfZvAS4Aesc0Mx3VNGPUbHP3WWecR/XwLm/fso16c9tI7l5c9j/1cX0zV37OPts7p1u0zM3tmxH289oyPlt9D9oqPXnrnMghz55nDR+d9ZO5mcN8u1ML3fJ7huJsmavnjYrJTH4vY81jM7duRfNSL0156z7FwpLE/54up8iP5aKucemy2at+RGPFYzD3jo/X3jL3io5fecwzC3Hnm8NF5H01xNoP7y5VMKR/5+QzHkazxceZuDPTitJfekecUbL/9GrN1TrduH8zenll8/q7Pe8VHL72M/btjjy9u74sZ3N/euC0DMcNx3ZKFLfsP224TT7047aUXrm7D1V78vHVOt27fXjigH2POG73io5deOB2T072M2wzuGag46HIcBx7Ysgfu3bt3Z17k9lbXW/YLtuEBeaBnfLTGISOFB/BA2QM947dsEU/xwH49MDPeSBjjIi8s4j3X8LFFBnpx2kvvFscAm7Y7N2yd063bB9vbZfsIY9MrPnrpPcKY0sftzikzuN9uJ3oANsNxJJb8DWM3Bnpx2ktvj7kAneOuDVvndOv2wf647O9h7HrFRy+9exgz+jDunDGD+3E7uQagMxzXLVlYo9/IHCsOenHaSy98jsVn7/HaOqdbt6/3+KH/2PHeKz566YX3Y/Pee/xncM9AxcGa4TgSRt4wdmOgF6e99MYY5Zo5+xwDW+d06/ad8y/lxOCaDPSKj1561/QlsonVcwzM4B5nRmfOcFy3ZCHa2/v6pZdeOr355psn/R84vW3Zin79h7FvvfXW6dlnn13NJ7047aV3K2O7lB3+P6MUP0vJ3IOc119/fZH/X3brnG7dvj2w1KsPmvc1/2sd6GXD1vTOne96xUcvvVsbry3Zo/9vXOvClmzqbcvS++4Z3JMwxsGf4bg7gDVw+RDgUeaS1wqclk2mFq2HDx8+Ydq5xC4mOvF6yn4tAg8ePLhbGEv6rLzF3ikdW3qucZ0a2+yvWt0l+iTfLiFnroy5ercYH3NZXWMDKL94ERQrpeNcvM4du1715T/1ReeSDTFJPFe31L70bC6nJRlrPptr3xbjSP6ZGq815r+5MmVbj8TNdjpJKsW26qzJ161ka93THkB9zTqz/2t1c9u58ZHbX3o/V+9W41L9F2Px8Hozxzdxvyl5l8iYoy/XjfNLydfqn/a5qpfbjngf/Z3tz3vMWt3c9ty9/Hiuzi/KSRijo2Y47s7BgviWG7tWSPJkHfs4dZ2BnKrn51MLgHxy64nFNq159kagRceUb1rattSZy2mLzJY6c/VuNT7c116sluI4/gLG9u3hHBf9lv6UfNPSLtaZy2lse4vrufZtNY6mxnbOXNnq7zVktupurTcVw2uvB632LV1vTr+mfFOyaW58lGRc8myu3q3G5VJ2LTEXXzIObjO1Pve2y/YtfZ7TrynfXGLTDO5JGKODa44rTY6XBOZrr7128cdVWoG6RcI49RunJUGOY7PWtexVX87Jn7NhmbM4ntNbKq9xWqq/1LOa3pHiw/5YktXWuJ6KzbWZcZ+XOstezUfqT03mVFIx1WaJMalxOqX3ls9r9o0UR1NjO2eubPX7GjJbdLeuD5KlsSv9OUJpTFt096ojezWfndM/t1+tY1iLj3M2XVNe01vqq9iY+8KgdZ0o9aN1/yc/q25JxpxnrfpaZbauGZYn/eqL731e2i7LXevcOuZz+jU1917Shxr3SR4JY3RIzXFzJwyBHo9XXnnlbnLxM79Kl9xHjx758RMBognJh+prctIz2yzAfFieygTT1Mdxoj7p1b3a6OzFLl5HG6TLeqaCWfVVZht1jr7IOvWRFv348GQX7y1rSk7WIT/Jhti3ko+jPOmzb2Ofba/qKvDVfx+uH/1lW6Xf5X621Fn6l5I1R05Nr3yQP56k/k8tqNn3t4wP91n2RVY9Cb/88st3Q6yyHEutdmtxVN99qJ30lljR81LCKN2Rt2irru/fv/947lA99cecO04luyYnl0lm3CxKjw/LzG08xuqb9auN7FFdlUumD9eXbZJv39g/mSM9n/MjPXPq37puzb6R4shjq3P0ocYzjmmJIdWfw7DkxfnX87Lk2I5a3EY2Y1v7O65BsktypTMe4tl2+7ljQs9VHtnWM/1Yh2I8PouxYn+5LzFeHCPWafssuyRHZbLHh+yUTPchz0+2O7ZRW9sV/afnqud+lXynfuQ9iNpE2+2LfJb8/OwW9zW97mscQ/XHfsv2ZXZuub55rGRftiuPu8dX9VTfh3hR3yxD9eLY6dpHfh7XJceaeJBMH/abbfVz22M7rT/2Q/ry82hPjEnJy/OG2toW22f5U3Jsj+2UTNU1D5IZD93nNtGuqMe+0LOS72Sb/OT9ue4lW3Gn57b90rPsbmw7byFuFNqqfHP1ao7TwOSNTIZE7fXMk77O0WfnBjm203WccB1Yki+ZOYB1b/DU1gEhm3QIxihfMiKEU9fR/qhT8mxLrKNnKovP4nUsz30q3ccgqcmJ9aTDE0H2o31j29Un/Vh29IOf6aw6MeDV3v4utZnyT5R56bXG89K217Sr6ZUPRokP+yCyqGdmI/Ib+dG1xlxny9C5FNdx/L1wSF/JT1Myajok3/ypXuk+cm1Z2Va1cz3bqWeqr+e+9r11Zl9EP1mXznquuMk6HH9Rv+pP+SfKPHdd4/Rc21uU1+wr9V++yoee5TGw7XmM/dzn2C6Pm/Rr7vT4nGMgrzO20+NtnT7rucs09uZJ5aV719U5z7++N2OR1div2F/pUR+9XuT+xnaqG+31fdSjcvdBPotlqm99eW50mc7RPl3HeCndx31BTU6sl/spO+1bydC9bc/9yD6xziwz1ovXrp/l+nk+1+Ij113yvqZXfc1jqP7kQ8/UdzGhc7TvVnEpndLt2PS46rmuZaOuPd/b5hovYsVyckzouVnSteNBOmK77BfdR522WfbUfBX7IB35J9qna88Ttiffu1/n5MR6sZ9iQ/2Q/ZKhe+nQudSP6JOoM8q0rdaZdZTkRllzrmvcJzlPOztVeGow9lxecpzgzYeBU1kMjugbDbQOweHnpUEWCFqgfTjRKcmWTAeT9OrasmMw5kB0HdXPh/VFION1bBv7altc7rN0GHI/kw/iYTlZT+yD2uZ+TMnJARj9LHusL9rjcdHZ1yrPsmKb2K9oa+6H2kz5x/KuOcuX17S/tG1Jb4mprceH+59ZzbypXn6mcdURmYm8uY18kA+1ESt546E2WcaUHNmsMtkRbdB1vjev6kO2R3Jy3yTXPpE95+YYlUuG2+U4cx/ipkDPoq25H1P+UbvWH/m9tW6PeiX75Pd8bD2ONPaRAfsyjq+eOWbcP3OZxz63073rxmvJjPFS4jg+K/m2tO7ZfulUG91Hm87FhGPHcnwuMa1npXU/2q32sZ++j3E5JUe25Hh0v7IOyY025n6UZLlN3CjrWU1Hlqv6pZ9SfJTqLf2spFc252PrcRn9YmY1Lhr3vA6ob2K8NMYeS8lz/Fle9onqqp7OqmsbIlfSH+eLkk7HW+be8qxDbfOzaJPtsd2uq3Yu07Nsg8rioXv3OeqM/co6oo25HyVZtk26pnwnfTHWslzLuOSs/ja2KwdsY+NWJcPUqzkuAmL/ZNj8PJ4FgA7VzYOcJ+54X5ItoCwnLhrSF4Mxyom2lGS6PAIZr1We7/VM/YpwW450yM54HxeuaEP2aeyD2sd+xHYqi/eyI+qMfo71bFO0PV6rPMsqtdGzaGvJPx4rt1/yXON0ST1ZVk1vHku1Lfk+y5S/dahuHDfVi+Of70uy7XPJqcWHbZCMyE0cU9fJNvj5HLvdRueSDj3Pfc99yPfuq2VPcZzbxftS3+yTWM86ou3xWuWl8dDzXE/Poq3qh+6to8SRy1rPNU5bZaxZr2Zfqf9Tvo02zuExjntJttmay4DtieOr6xhj8d56Su30LNaN1yqTbfrFi/xVYuxcH62z5O9ol/Tqxzpr80pJltrl59E2lcf73JfYz2xDbJfl1MY1t8s2qm0cs5Ks3Eb3+rHvSjqyXLfJ51p85LpL3tf05jGU3im/RJvEjg7VzWOZfRTvS7Lt23NxGfXr2ra/+OKLT7zRi/Vq+lTP8VfSHeXYRj+zbrVT/xQ/Oqu8pDPGW5Zlmfm5bXN5vI/yrFPtXTfaENup3PelPsd+uZ5l6mwb1dbzlJ6XZLmd2/g+6tA1CePPHWjnbOG8xoShfhnaDE+GQPDG33zqt0GqIxkKMt2rjmVG8KXDiVmceKJfs4xYFm2J11OySkEiebIv2xXvdW07pSe+bZGuOKFE3VlflCOd/q2fbJBc+y7KUJnusx8l276IffcznVUn1ou25jZ5nKOcJa5rnC4hf0pGTW8eS8nQuHisp2TquX2b/Zb9KnlLxIdtyazGMXWdzI+f1+xWmfiM3LvdlLzc91xPvlDfZbPl+zraYj3yqfTX5EinxidyHe22jCjT4ym5U7Hq+jrnenrm8da19EX9eUyirNbrGqetMtasV7NvpDgqja38NjW+5s1xoXMLw5YZ53i1833JDj3zm21dxzk/jm3J39Gu2BfbYft975jI85X1ZB25nvrieS33Jc8L9qHa1OSoTH3WWXZkH6gPMe50735Jtq/d1r50n3SW7P+/vat7ueK63r9/IH9AwKteeNGL3hVyU5BCkCISvBCCGFpsBRVy04JRAypFJCRaJVQkNE2DWpOaKH4hlVRTv4NfNX7EtDXRxmpNtdHGj2qi2T+fnayT9Y7zcfY+e87a7zvPwPvOnJnZa6397OeZfdbZe2Z0/419KIfyGn8pU8RS9hfXdfoonpvyc53fsrqintL2dXFIvYttCZs6CYA94QGO1bUfbOo2wueqWPS5KKPLSdwh/up8Sftru8KRIreLHGniqNgs+sBnxITjog+pI/bLMRwvclu3YZ0dHBObsKMxKLajxrLY5lJW28I+/GEf4pHPsCPYFX0UsZQyMes63hfs5ZWwFYLrATes/QHA+djQuMUFRBLiyzHp2FAPHMci++Qz9oEc+AM5cK62j/NxQdCEAsFkEXsoVxSixg+2cVGSRS4ympB6W8eHMvqCJmTW9hGfFoMIWPzhpl4pBz+yLXEjHsQvn6WjqrODc3WcKAM7sI9jWOs641zsLx4TbLUtqS/26XJasBovsak7AvGVag0sU9kKsRPqV/NX2h8YWutD6lzkqm5TOQf7hIMhcRf5KjyC3WLHgH1lHYvGD3yGVoSjRRtFfuKz6LDOTrFOKCPlJFZpO32N0cfkGqL9oAw+l2GqY4UvfIY9sak/y/6QNXyHnD/sc0PjK+KK8sCo2Ha6fXAci+yTz9gHHuFPro/aPs5He2Kf4II2kkXs4VhZ2zpU7jkAACAASURBVGI/fOFPzkEZLNAArv/CL6y1H11O7Mi5OIaH2mhbEn9ZHNgnuoWtYh8gnMV+3QfhXB2XLiex4rgsGo8yDYvvog/URxbdHsW6FG3KdUViqbIDvzhHFsSp21XsyHHBA+UQg+AM+0VbKAPbddgV8Rd/EjdsVv3BftWxNveH+tX4oiwW4KXxwz7NEWkv2SefcZ7mAeqp7RfbD8ereKhtwq5uW2kH7Mei+6U6f7ApWiz6hh1pV60dnFfkiMQsMWl9wQ78oBz+YFP7lP1FHxrv4jUG9upswofEUmeniJu0FfZLrIhfFsEDx+Afi7R50Zb4L9ZLY4dt/Z1Sxy24xK4RW59lq0Xbp4F+HY2K8wKAGxX1abMNhfRaGG36C7GN2CBoiCykXKpzixepVHbFjhVPrfxKvcfKOuXFPjUmiK2sk07tp8weOmx0nliXHe93X+48zT2+fnHmeY9+f8K130o/Te1R/ELadH7K4/rLb5NdK31Y+W3Co6vH0Q/oH31ywiGEz23EnVLLAbx/9ILXRuVGi80A4Ab6QjNa8GiKM9cvvohLfs1pqkPq48VfglLbhz0rnlr5bQNDS5u5/tgicelfZIeJEzrBFL5z52nu8Q2zzcear1y/5KJfQp+I9bAxl+sK+uV+fFvpw8pvP5h09Zxcf4BBX4U/i3ZJ/b07gPdMGHWDBwBnQhQdK7e/5S46aXSGeum3cxqNOFrx1MrvaGyj0RIzOmS9yPSY0RJ/WZy58zT3+Mow5b5v+5vRgIUkaVrbKX6MGUbdrfRh5XcYmNLHYPrF90m9WA1ItNGOAbwfDMQ2gre0GQAcE8Zv5plbtldXfVvx1MpvV9uZ9Y7rn3Lnae7xkXdxvCNuaXCz0oeVX/ImDW+IYxyOAbyPczBWGyYAOCaMTBjNOGDFUyu/Y/V6w3q10//kztPc4yMv2+Elce0PVyt9WPklL/rjBXFqB6cA3rcTwGht2ADgzJKF0Yot406nNSueWvkld9JxpwtY5s7T3OPrAkdYx3yvKVb6sPJLLubLxS60TQDv2VCaEAHAMWHkCKMZB6x4auVXa5TbvGY3cSB3nuYeXxO+PE4NtskBK31Y+W0TS9qmVps4EMB7gqnBDADOLFnQ8XK7m/y14qmVX/K8mzyPbffceZp7fLG4sxx1moIDVvqw8psCM9qg9mI5EMB7gqxBDgCOCSNHGM04YMVTK79ao9zmNbuJA7nzNPf4mvDlcWqwTQ5Y6cPKb5tY0ja12sSBAN4TTA1mAHBmyYKOl9vd5K8VT638kufd5Hlsu+fO09zji8Wd5ajTFByw0oeV3xSY0Qa1F8uBAN4TZA1yAHBMGDnCaMYBK55a+dUa5Tav2U0cyJ2nucfXhC+PU4NtcsBKH1Z+28SStqnVJg4E8J5gajADgDNLFnS83O4mf614auWXPO8mz2PbPXee5h5fLO4sR52m4ICVPqz8psCMNqi9WA4E8J4ga5ADgGPCyBFGMw5Y8dTKr9Yot3nNbuJA7jzNPb4mfHmcGmyTA1b6sPLbJpa0Ta02cSCA9wRTgxkAnFmyoOPldjf5a8VTK7/keTd5HtvuufM09/hicWc56jQFB6z0YeU3BWa0Qe3FciCA9wRZgxwAHBNGjjCaccCKp1Z+tUa5zWt2Ewdy52nu8TXhy+PUYJscsNKHld82saRtarWJAwG8J5gazADgzJIFHS+3u8lfK55a+SXPu8nz2HbPnae5xxeLO8tRpyk4YKUPK78pMKMNai+WAwG8J8ga5ADgmDByhNGMA1Y8tfKrNcptXrObOJA7T3OPrwlfHqcG2+SAlT6s/LaJJW1Tq00cCOA9wdRgBgBnlizoeLndTf5a8dTKL3neTZ7HtnvuPM09vljcWY46TcEBK31Y+U2BGW1Qe7EcCOA9QdYgBwDHhJEjjGYcsOKplV+tUW7zmt3Egdx5mnt8TfjyODXYJges9GHlt00saZtabeJAAO8JpgYzADizZEHHy+1u8teKp1Z+yfNu8jy23XPnae7xxeLOctRpCg5Y6cPKbwrMaIPai+VAAO8JsgY5ADgmjJEjjL/+9a/d//73P7d8+XL33e9+1/3tb3/zf9jWbcHtam1a8dTKb5e4QH1U875fHuTO09zj6xfnnM+jjgbXkVX7WunDyq8VzhZ+qcv8dBnA+/yCtyCx+AwArjS5efXVV2HC/elPfyo9Ln7q1mfOnPE28O+rr75y//3vf9327dt9clVXTo6NGzfOvfHGG+7mzZvezpdffunOnTvnnnnmmeiYxPag6yeeeMJduHDBffjhh278+PE+ntWrVzvEiHWT/V/+8pfu3r17PXyw8c9//tP98Ic/bCzbZLvquPhEu1SdM+z9qPewfcLfoH6pj/rrLfVRj0+/nB+Up/36iT1v0Pioo3qeUEf1+MTydljlBtVHbJyD+qUu63lHXdbjE8vbQcsF8D7PCgwKQGz5AOBKv7CnumAggULS+c4777j//Oc/CMu9//77fSWNO3fu9Inm559/7k6dOuU++ugjd+nSJfejH/2oNOZYrGLKSfL15ptv9mKZPHmy+/TTT93p06fdY4891ttfZl/Koz5r1qzxfytXruwln2VlBt0nPpkw5pMwUh/l123hKvVh84NKv9ca9jPl/O0Xv6bzRAfsZ9rFuakdYo8Pqg8rv/z+V8836rIen1jeDlouQG95VmBQAGLL1wE3e/Zst2fPHjdp0qTKpCbVBQOjaBAX6oFED18Av/jiC/fCCy9U+sa506ZNc5999pm7ceOGQ7yxOLRVbsuWLe7OnTtu7ty5I2I7efKkT4ynTp3q67t37163fv36EecgJrnghCRvM2fOdNevX48e9Y3x2RZ+YreOp3JOG+s6v9TH4NdS6mNwDMH7Op62oYtQm3XxUUeDc4A6GhzDUE6nPL9OHyn9FG3V+aUuB+cUdTk4hkXOpvhcx/uC/TwrUAjykcShreN1wCFxuHr16oipnbjv7uDBg+7+/ft+quQHH3zg1zIldfHixe7atWt+xA/TSzFauGjRIl8f2EPytHHjRp8QYuoppo0iGdIJI+oKoWHB6CE+r1q1yieF2IfRlgMHDvjRx2XLlvnPSMDKMMII3rp169zt27dR1N9LCJty/yB8Y4rnsWPHfJ1Qr3379rnDhw/3PqO+cn5VHKgHRjh37drlzp496/2gvjox1PEBL0kkJUE7f/68+/73vz+iHnJMj6AsXbrUj0zqegET1OHll1/2CbSv7MN/guvEiRN9XDgPC+6p3Lp1q7cDjLCNc1F/xA+8JEmdMGGCO3LkiD8mbbpixYoRceq6tbGNmNuw22Szzi/ahvq4768H1Ec39dGkHzlOHbGfGQ39jPB12Os6fbQZS51f9m/3/Xcefv+z//6XWgN1vC/4YsKoASkDDgkepoPiPsC7d+/6BOLo0aN+BA+jYEga8EV506ZNfmolbEjCiNHBbdu2ufnz5zskc0hMJBGS5Afn435DjF5ijndZwqhHLufNm+eTK0w3nTFjhnvrrbe8kOFfn6frJdu44RhJkMR78eJFH7+M5sE3FsSI+yZv3brlP+P8HTt2+CQQGCxcuNDVxSEJIwqjzidOnHBTpkzxdSu75xBxSzKHezCfffZZf77ELWuNmQ/s4T/EjJFVjKrib8OGDT5WJH1PPfWU279/vz8Vid9rr73m96GzxpRW3Dc5a9Ys98knn/QSVoziYjQXCS/aDlN60cbwg3JIFvEZU2iBCTBC+82ZM2doSRwqJJgMc13ml/pwXk/UB/XRrxapI/Yzo6Gf6ZfPqc8r00dqH2X2yvyyf2P/ltv3vzLuDrKvjPcV9pgwamDKgEOSheQBo0wPHjzwCQJGDRcsWOBHsTBKhWQQdpYsWeITH0kYX3rpJXf58mWfpME2FkmYJPnBU0JlRAI2yhJGjAJiwUijjDb6HeofRu8QK2KsGmHEqFtZvPApviUhlM9I5FAvfN69e3cvsauLQxJG3JuIRBFlxZ7UX/Zh/frrr/fs6v3FbcFM4pXjeIAOklIsaCfc+4lRRBwvS6KnT5/uMUJdZZGEVeol978gKUdCCJ+YMotRYtQL917CPjDBAj8ST9tr+GvbR5n9Mr/UB/VBfYT1o9TRGf/jK354xHVG+jz2M3n1M2V9wDD2lenDyi/7N/ZvufVvqbUQoLewji51oLnZqwMOyUpxyl1VAoaEUZILJJvoCJF4YFsSJkl+JLkULKTzxHHsk3sYiwkNRjSQmMkf7q3EKBfIjfsYMeomNmVdFa8kYFgjRthEmWIsiLWfOCRhFLviv58pqXJu2VowK9rFuRiZfPHFF/1TWPGL0JUrVzx2ZQkjcEBijRFETHvV9WTCWH1NoD6oD+qjWh9l16yyfdQRdTQadFTG3WHsq9NHm/7r/PL73//5mXP8/mc/YJBaA3W8L/gavPMrGHwkSRlNx+uAw4ji+YdTNZ9++uleHYtTUjHFE0sxYXz77bd79zr2kzAimcEUWEw7RQKHBOj48eP+aaAyFRT7N2/e7KdWYtrlc88956dMyhRMHEd5JEO4txKvnsCvZU1TUvtNGOviqEoYMVIq9ypqXuhEEok17lF89913fX30eZIw4n5PTBPGH0YTn3/+eT/CiFFBtAkSe0xPRdIsCSOmnaKTlpFhYIxpwMAQdZYLYXGqEF4BktuUhDqearxSb9f5pT5GdqjUR/embPerN+qo/4SROrLTUb98Tn1enT5S+9L26vyyf2P/lsstSZqzKbbreF+wz4RRAxIAnE8aMZVUP/QGD4jBPW1IGPVN7Ug4MPUUSWA/CSPiwIJymAK5du1aP4ImseIhK9iP4/j797//7e/7w3HEhMQM9w5iwRRUJJsYSUNMeDgMRiGx4JziQ2/6TRjhqyqOqoRRkjGZ7gkbxddqYJoSpooCq6qH3vjgv/kHPFEGa2CBBfVDPVFfjNB+/PHH/hiwQNK86OF9qRiFxYL1oUOHfCKLhFS3G5JrPPAHCaiMaspDb2BL2ocPvSm/jlAf5TqlPsr5Ite3QdfQ9aA22iwfGh91RB2hvx92P9OmBupsh+qjzlbIsVC/1CV1ORZ0GcD7djvuELHmcG4AcFl/IckBy7IYql7ciofMIJGTMkjycDGWz1yP1KkVT638dqX9qY+RPI9t99x5mnt8sbjnUo46SqMjq/a00oeVXyuch+2XusxTlwG8z7MCwyay+AsAjsnMw9FBwS1kjcQQI5vLly/3T4XF6F/xwT8h9rp4rhVPrfx2qY2pj7jriuZI7jzNPT6N5Wjdpo4G15FV21vpw8qvFc4WfqnL/HQZwPv8grcgsfgMAC4qWRI/XJN3g3DAiqdWfgfBimW7p7XceZp7fNRM9zSTU5tb6cPKb07YM5buaT+A990Dp04QAcAxYYwcYazDn8f606MVT638khf98YI4fY1T7jzNPT7yiHqz5ICVPqz8WmJN39R6AO8JlhZMAHBMGJkwmnHAiqdWfrVGuc1rdhMHcudp7vE14cvj1GCbHLDSh5XfNrGkbWq1iQMBvCeYGswA4MySBR3vaNvW89fxUBvcu8j7F8M1aMVTK7+jjeex8VIf4Voowzp3nuYeXxmmo2kfdZRGR1ZtbqUPK79WOA/bL3WZpy4DeJ9nBYZNZPEXAFxpwijv/MNrNcRm6Bqvb5AFr23AOwe3b9/e+NRQvGcRr5YoW+SVEKGxpDy/6glZeD3F6tWrG/GSdzDq+skrSlLGqW2Jzxzw03EBA/15WNuD+qU+qq+31Ec1NqH8HpSnof5Czx80PuqomivUUTU2oTy1On9QfcTGPahf6rKae9RlNTaxfE1VLoD3+VYiFRghdgKAK/3CnuqCgSQKSSdeSo/3vGDBS+rrXjWBdxbifJyH9zJiwcvq8XnTpk2l8YZgM+i5knzVvYOxzoeUv3TpkluzZo3/W7lypRs/fnxrdROfTBi/vk6AU3Vt1HSM+qi+3grXqI9qjJr4JccH5anYaWs9aHzUUTVHqKNqbNric2q7g+ojNp5B/VKX1dyjLquxieVrqnIBvM+3EqnACLFTB9zs2bPdnj173KRJkyq/NKe6YNy7d89BYIgd7yREkoR3FeLF9/3UB8kmFsTTz/nDOGfLli3uzp07bu7cuSNiOnnypE+Kp06d6uu6d+9et379+hHnID654IQkbzNnznTXr1/3yXdMHWN8xvgJLVPH01BbIefX+aU+BruWUh+D4ad5XMdTfZ7Vdl181NFgPKCOBsPPShPab50+9Hmpt+v8UpeD8Yq6HAy/1FzX9up4r897uJ1vJSxiqwMOycPVq1fdM88800tmMOJ38OBBd//+fYck74MPPvBrmZK6ePFid+3aNYeppfjDaOGiRYt8edhDArVx40afEGLqKWwjIdIJI3CA2LDs3LnTl121apW7ceOG34fRyAMHDowYfSxLGB977DG3bt06d/v2bV8O70KEPdQBfj///HP33nvv+VgQ682bN93bb7/d+4xyr7zyivc/ceJEd/bsWQffWGBr69atDj7E1q5du/w5OIa66sRQty1ilURSErTz5887jJjq8+SYHmFcunSp96nrhZiOHTvmXn75ZffZZ5/5+PBPMK2LHfGjHjgXbYo6ot6SpE6YMMEdOXLEH5P2XLFixYg4dcxtbaM+bdmus1vnF+1DfVAfXdZHnXb0MeqI/cxo6Gc0Z4e5XaePNuOo88v+jd//cvn+l1oDdbwv+GLCqAEpAw4JHqZ1njt3zt29e9cnEUePHnX4xQkjYUgc8EUZ0z4//fRTmOiNaGF0cNu2bW7+/Plu2bJlPrGSZEgSIJyP5Ayjl5jnXZYw6pHLefPm+QTr1KlTbsaMGe6tt97yCYyedlqWMOKGYyRBEuvFixd97KiDJHk4jgQYieODBw/88dOnT/eSYpT5wQ9+4JM0TAvFvYezZs3yU18l6RNbqBeSxRMnTrgpU6b4epXdc4i6STI3btw49+yzz/rzdbtgW+MF21iA1bRp03zyjAR6w4YNbseOHT7pe+qpp9z+/fv9eUj8XnvtNYd9SAqrYscILkZykTyj3T766COPAfygHL4Mo72BCfzcunXLt92cOXOGmsChUkV8hvG5zC/1QX1QH2H9KHXEfmY09DPD6FPKfJTpo+y81PvK/LJ/Y/+WW/82DN5X+Ajr6CqMmHx5bSOWsgsGEi0kEBhpQhKFJAGjhgsWLPAjWRjRQjKIeJYsWeKTHxlhfOmll9zly5d9ogbbWCRpkgSo+JRQkFMSKKkjRgKxYKRRRhv9DvUPI3hyflnCiFG3sljhT5I8SQjlM2J/8skn/R+2Jfbp06f7EUMk0LJIzFIWyTMSRYkJfqS87MP69ddff6S++rhsC16wI/uwxj2MSEqxoI1wHydGEXFMJ9pSpi52wVbuI0NCjmQePjFlFiPEqNfkyZO9/d27d3u/w576C6dSn2Guy/xSH9QH9RHWj1JHX//wKH0F+5k8+5lh9i3aV5k+9PG2tsv8sn9j/5Zb/5aa/2W8r/AR1tFVGDH58tpGLHXAIWEpTrmrSsKQsEmCgWQTiSSSD2xL0iQJkCSXUh+QU5Iv7JN7GGWfJDUY4UKHK3/63srYhBG+4VM6colVnsAqn1FvJM8YhcPUUR2zlBVbUq9+pqTKuWVrwatoF+diZPLFF190Fy5c8COAV65c8biVJYx1sQu2TBjLrwvUB/UBDlAf5foou26V7aOOqKPRoKMy7g5jX50+2vRf55ff//7Z++5a9x2K3/8G6xva5HeV7TreF8qMvsoVKpA0Wa0DDiOKmE769NNP93wWp6RihA5LMWHEvYByr6MkXZIAlSWMSMYwBRbTTpFkYhrk8ePH/WiaTEnF/s2bN/vplZh6+dxzz/XiKksY+5mSKsmYiF5irUoYMY0WMSAWSWilrNiS9sIoqUxblX1Y60QSSTXuUXz33Xf9FFB9nuCFez0xRRh/GE18/vnn/QgjvsSiPZDUY3oqpqpKwoinxSIZlFFh4FsWe3FK6ocffsgpqQ/bSNqB+gj7olvGMerjWz4Jr1Kv63ia2leMvbr42M88+sWUOrK59SGG2ynK1Okjhf0qG3V+qUvqMpdbkqr4G7u/jvcFm+133gWHvS+fOe4PAM7Xo/jQm3379vkpq0jY9ANUkPBh6imSQEnCJAEqSxgRBxaUwzTItWvX+lE0wQwPWsF+HMcfXqOBe//keFnCiHjwcBhMscRS9tAbSfLkS63EWkwYMa9fHiiD9aFDh3wyiDpJWbElMUkyJqMT2I+pnZjiiXsCEd/ChQv9faLAqeqhNz74b/4hPpTBGjhgQf1QT9jD6OzHH3/sj2E6LpLmuth1m+F+zsOHD/sEVOoiNz3DlrQNH3pTfQ2hPpzXCfVRzRG5PqRc4zqQ0l5qW6HxUUfUkUU/k5r3/doL1Ue/dpvOC/VLXVKXY0GXAbwfbkfeJFjr4wHAZf2FxBrHMv9VL27Fzf9I5KQMkjxciOUz149q1IqnVn67wAHq41Gex7Z77jzNPb5Y3HMoRx2l05FVe1rpw8qvFc7D9Etd5qvLAN7nW4lhkll8BQDHhEZNVRT8mtZIDDGyuXz5cv9EWIz+FR/602SDx/8PNDXhn5XfrrQ59ZGmP8qdp7nHN9r1Rh2l0ZEVD6z0YeXXCudh+6Uu89RlAO/zrMCwiSz+AoAz+cIucXLdbd5a8dTKL/nebb6Htn/uPM09vlC8eT71mZIDVvqw8psSO9qiFkM5EMB7gqvBDQCOCWPECKPGmtvx2rPiqZVfciWeK13ELnee5h5fFznDOudzjbHSh5Vfci8f7nWxLQJ4z4bSBAkAjgkjE0YzDljx1Mqv1ii3ec1u4kDuPM09viZ8eZwabJMDVvqw8tsmlrRNrTZxIID3BFODGQCcWbKg4x1N23gdCZ7sileAPP74436NJ6ROmTKFWAYm31Y8tfI7mngeGyv1ka4vyp2nuccXy+EcylFH6XRk1Z5W+rDya4XzMP1Sl/nqMoD3+VZimGQWXwHA+SSn6tUYYm9Ya4kD8e/du3dEAnbgwAHs9u9KxCsvZs2a5fAuQzxspvjqijbj3b59u3/lxZw5c3x88+fP9w/Awf4mv/KqDl+Rb/7h3Y/Y31Q29ri8SqRtPzHxAYKYcoOWCfUrvCy+OmbQOELLSxyIn/pIc82nPuJxpI7isWvSPvuZ9rBtwj7V8VB9WPmVfoX9WzPnqMtmjFLxONROgN7yrURopVOcHwCc/8Ke4wVD3p0IPPCKiitXrqBavYQRI3pnz571L73HewdT4NZkQ75c/v3vf3fjx4/3PrHGZx1vlR1JGPHOxz/84Q9uzZo17pVXXvFPWq0qM+h+iZkJ47fXCOrjWywG5ZcuL1yjPtLgG8pT3RbD2A6Nj/1Mf7ygjvrDaRgcH8RHqD4G8aXLhvqlLvvjG3XZH06ai8PcDuB93hUZJmjwVQfc7Nmz3Z49e9ykSZN6SVZuFwyMHN65c8fNnTu3l9Devn3bffLJJ72EcdiYwh/iQVxbtmzpYYf9O3fu7MWLdy/+8Y9/dDt27OgllRKrJIz9JJdSBgnpyZMn+0pIpYxey0WOCeO31wjq41ssNFcG3aY+0uJax9NB2ypF+br42M/Ec4E6iscuBa9T2ajTRyofZXbq/FKX8dyiLuOxK+Np6n11vC/4yrsihWBHJBttHKsDDsnh1atXR0yDlITx3LlzDqNfWLBetGiRj3XixIl+NO/LL7/0x/AOwq1btzoZ2Vu1apW7ceOGP3b//n13+PBh953vfMfNmDHD4R2FX331lf9DooR9qPOZM2fc+fPnfbJ17949h+kQEsepU6fcrVu33JtvvunPxTHcN4jzJfGR5At2YA9lkcz9+c9/7tXh2rVrfiSvrE4TJkxwR44ccYgX8cH+ihUrvK3p06f7qa4SN8r/6le/8qOBOB/v4dHt9uqrr7oHDx74/RIX7E2dOnXEeXIM9mSEceXKlT6x/PnPf+7+9a9/9bDCNo4hWUQcsgCL733ve+7gwYPu7t27fjfaBVN2kawiLrQbfKDcpUuX3OXLl3u4oc3WrVvnkIBjQVsi4ZWyul5tb8N/2z7K7Nf5pT6+1jz10V19lGmmbB919HVfyX4m736mjLvD2Fenjzb91/ll/8b+LZfvf6k1UMf7gi8mjBqQMuCQRLz//vsOSSESDUznPHr0qMMvTpKoIXHD6OOxY8d8siFTy5BkYPrk6tWr/b2DGOmTEcB58+b5bSR4GFU7dOiQ+81vftN7of3169fdwoUL3eLFi31SCf+45xCJHhYkYBcvXnRLlizpxYH7s84/TA7h/8knn3QXLlzwMaFMXcKI+PGHBEjbR3J1+vRpXyckYKgPkkUkVNiPuBH/zZs3He5NRHksSHx///vfu/fee8/XG4kh7AMvjbfgh+Ow/dOf/tT9+Mc/HnEOzpeE0Rv/5p+MNiIuJH67d+/2iTJw/NnPfuZ+97vf+aROkkz8ygVbSG7Xrl3r4/rLX/7SS1hl+i5wRb2RSMKu4IZkF8fwo8GmTZs89sBh/fr1j8Sr69jGNiBow26TzTK/1Af1AX1SH/33pdQR+5nR0M809QdtHS/TR1u+tN0yv+zf2L/l1r9pzqbYLuN9hd3+O7kKAyZfXNuKpQw4fBFC0oCRJYyGIUHCL6MLFizoJWpInpDwSGIjyQxG3JDQyIgW7EvihOmZWGQ0UOokw/f+oPqHkchp06b5hO6LL75wy5cv72EviRdG0fCHqalIUhEz1v0kjIgTMYgtJMaoE0Y2kRDCBkb+MAKIp5tOnjzZn49EDQuSPiS3GHlDIoVkdenSpd5GVcKIZBd44LjUv2xdxFWf89vf/tYncuiAEeMvfvELb6usDEZ/kFDKKKHAC/+Cu072gYEkjPgxAAnksmXLvH2JHT51PMPYRtzD8FP0UeaX+qA+oDXqo/++lDpiPzMa+pni9X9Yn8v0MQzfZX7Zv7F/y61/S62FMt5X+Oi/k6swsUCk3gAAC6ZJREFUYPLFta1Y6oBDIlU1JRVJGmIqJin4EoUkc9u2bb3RwX4TRowUzpw509uEXTyWeNy4cSOSP8FBkjzE8cILL/gE9R//+IdPHH/yk5+MKCMxSqKjy8KefJbj+vymhBHl8VCdd955xydlMgKHB9QgocPFV2LGGomaTEnV+4vbEoMk4sXjwAmjmsAWyTQwKCsjSTpGEDGiCLywMGHs7zpAfVAfo+GLbh1Pi9cOi8918bGfaf5hEm3Gfqa/a7YFvwf1WaePQW3Xla/zS11Sl7kMGNRxOOZYHe8L9sbuRadQ0RGJStWxOuAwoogkDomblJfkqilhxHTVzZs3+9EqSRiR1CC50VNSMd3ziSee8PcvypQVTGnF1M833njD+0UiJ6NeZXFg5A8jgFhk5FOXkURKEsJiHeSzHNfnN01J3bhxo78XEjHv27fPJ4OYpoqptRhlrXvoDR4yg1d9nDhx4pGnn0oMmM6LOmGKMEYK8QAiTMMFPvCJ/UhSkaBKGeCLRzpjGqokjMePH/cju/gBAAsSxuKUVLQZ2kqwRrKLNuGU1PJrBvVxxo+m103Zpj7KuSPXsVRraDqVrTbs1MVHHVFHufQzbXC/H5t1+uinfOw5dX6pS+pyrOqyjvcFLQ2nAy84zbYzDwDO10GSq6qEEfPfcQ8dFqyR5CDpQTkkX7iJFtM9seDXi127dnm7mMr617/+1ScoOIZpnjgXOOrkT3AtxiH3Usr9dbqMJFKSEBbLymc5XjxfHuqBeJGc6YfebNiwoTf9FuJCHVAXScZkdAJxF1+rgem2mHaL6b749VjqhrXEACxkkURu//79HjvsR0z4wo4YgS+euoo4ECfuO8X0WjzMBp8xLRX3KQJbJIzws0g99AYjtJimK36K7cWH3jRfO4RL1MfXD4WiPpo5o3Ufu41rQWzZYZQLjY86Yj9j8XC1YWihzEeoPspsxOwL9UtdUpdjQZcBvB9OBx4jXosyAcBl/YXEArsmn2UvbkXyjKfGSlmMMuLBPvKZ63J9WvHUym8XeEB9lHM9pu1z52nu8cVgnksZ6iidjqza1EofVn6tcB6mX+oyX10G8D7fSgyTzOIrADgmNQ9H5AS3ftaYyovRSIwIPv74434kEFNni6OJ/djq+jlWPLXy24X2pj7Crid1nMidp7nHV4dt7seoo3Q6smprK31Y+bXCeZh+qct8dRnA+3wrMUwyi68A4IKSJbHPNfmWggNWPLXymwIz2uiO9nLnae7xUSvd0UqObW2lDyu/ObYBY+rONSCA990BpR8BBADHhDFwhLEf/HlOf3q04qmVX/KiP14Qp69xyp2nucdHHlFvlhyw0oeVX0us6ZtaD+A9wdKCCQCOCSMTRjMOWPHUyq/WKLd5zW7iQO48zT2+Jnx5nBpskwNW+rDy2yaWtE2tNnEggPcEU4MZAJxZsqDj5XY3+WvFUyu/5Hk3eR7b7rnzNPf4YnFnOeo0BQes9GHlNwVmtEHtxXIggPcEWYMcABwTRo4wmnHAiqdWfrVGuc1rdhMHcudp7vE14cvj1GCbHLDSh5XfNrGkbWq1iQMBvCeYGswA4MySBR0vt7vJXyueWvklz7vJ89h2z52nuccXizvLUacpOGClDyu/KTCjDWovlgMBvCfIGuQA4JgwcoTRjANWPLXyqzXKbV6zmziQO09zj68JXx6nBtvkgJU+rPy2iSVtU6tNHAjgPcHUYAYAZ5Ys6Hi53U3+WvHUyi953k2ex7Z77jzNPb5Y3FmOOk3BASt9WPlNgRltUHuxHAjgPUHWIAcAx4SRI4xmHLDiqZVfrVFu85rdxIHceZp7fE348jg12CYHrPRh5bdNLGmbWm3iQADvCaYGMwA4s2RBx8vtbvLXiqdWfsnzbvI8tt1z52nu8cXiznLUaQoOWOnDym8KzGiD2ovlQADvCbIGOQA4JowcYTTjgBVPrfxqjXKb1+wmDuTO09zja8KXx6nBNjlgpQ8rv21iSdvUahMHAnhPMDWYAcCZJQs6Xm53k79WPLXyS553k+ex7Z47T3OPLxZ3lqNOU3DASh9WflNgRhvUXiwHAnhPkDXIAcAxYeQIoxkHrHhq5VdrlNu8ZjdxIHee5h5fE748Tg22yQErfVj5bRNL2qZWmzgQwHuCqcEMAM4sWdDxcrub/LXiqZVf8rybPI9t99x5mnt8sbizHHWaggNW+rDymwIz2qD2YjkQwHuCrEEOAI4JI0cYzThgxVMrv1qj3OY1u4kDufM09/ia8OVxarBNDljpw8pvm1jSNrXaxIEA3hNMDWYAcGbJgo6X293krxVPrfyS593keWy7587T3OOLxZ3lqNMUHLDSh5XfFJjRBrUXy4EA3hNkDXIAcEwYOcJoxgErnlr51RrlNq/ZTRzInae5x9eEL49Tg21ywEofVn7bxJK2qdUmDgTwnmBqMAOAM0sWdLzc7iZ/rXhq5Zc87ybPY9s9d57mHl8s7ixHnabggJU+rPymwIw2qL1YDgTwniBrkAOAY8LIEUYzDljx1Mqv1ii3ec1u4kDuPM09viZ8eZwabJMDVvqw8tsmlrRNrTZxIID3BFODGQCcWbKg4+V2N/lrxVMrv+R5N3ke2+658zT3+GJxZznqNAUHrPRh5TcFZrRB7cVyIID3BFmDHAAcE0aOMJpxwIqnVn61RrnNa3YTB3Lnae7xNeHL49Rgmxyw0oeV3zaxpG1qtYkDAbwnmBrMAODMkgUdL7e7yV8rnlr5Jc+7yfPYds+dp7nHF4s7y1GnKThgpQ8rvykwow1qL5YDAbwnyBrkAOCYMHKE0YwDVjy18qs1ym1es5s4kDtPc4+vCV8epwbb5ICVPqz8toklbVOrTRwI4D3B1GAGAGeWLOh4ud1N/lrx1Moved5Nnse2e+48zT2+WNxZjjpNwQErfVj5TYEZbVB7sRwI4D1B1iAHAMeEkSOMZhyw4qmVX61RbvOa3cSB3Hmae3xN+PI4NdgmB6z0YeW3TSxpm1pt4kAA7wmmBjMAOLNkQcfL7W7y14qnVn7J827yPLbdc+dp7vHF4s5y1GkKDljpw8pvCsxog9qL5UAA7wmyBjkAOCaMHGE044AVT638ao1ym9fsJg7kztPc42vCl8epwTY5YKUPK79tYknb1GoTBwJ4TzA1mAHAmSULOl5ud5O/Vjy18kued5Pnse2eO09zjy8Wd5ajTlNwwEofVn5TYEYb1F4sBwJ4T5A1yAHAMWHkCKMZB6x4auVXa5TbvGY3cSB3nuYeXxO+PE4NtskBK31Y+W0TS9qmVps4EMB7gqnBDADOLFnQ8XK7m/y14qmVX/K8mzyPbffceZp7fLG4sxx1moIDVvqw8psCM9qg9mI5EMB7gqxBDgCOCSNHGM04YMVTK79ao9zmNbuJA7nzNPf4mvDlcWqwTQ5Y6cPKb5tY0ja12sSBAN4TTA0mgONCBEYDApq3w9oeDbgwRiIABIaliRg/bCEiQATqEYjR1aBl6iPiUSIwdhHoUztMGPsEKusvIKwDeUwOkAPkADlADpAD5AA5QA6QAy1wgKC2ACqTS05XJQfIAXKAHCAHyAFygBwgB8iBscABJoxMGMkBcoAcIAfIAXKAHCAHyAFygBwgB0o5ULpzLGTCrAN/0SEHyAFygBwgB8gBcoAcIAfIAXJgMA4wYeQvCeQAOUAOkAPkADlADpAD5AA5QA6QA6UcKN3JLHywLJz4ET9ygBwgB8gBcoAcIAfIAXKAHBgLHGDCyF8SyAFygBwgB8gBcoAcIAfIAXKAHCAHSjlQunMsZMKsA3/RIQfIAXKAHCAHyAFygBwgB8gBcmAwDjBh5C8J5AA5QA6QA+QAOUAOkAPkADlADpADpRwo3cksfLAsnPgRP3KAHCAHyAFygBwgB8gBcoAcGAscYMLIXxLIAXKAHCAHyAFygBwgB8gBcoAcIAdKOVC6cyxkwqwDf9EhB8gBcoAcIAfIAXKAHCAHyAFyYAAO/D+zANoC5o3fvgAAAABJRU5ErkJggg==;" vertex="1" parent="1">
          <mxGeometry x="10" y="-1090" width="832.03" height="460" as="geometry" />
        </mxCell>
        <mxCell id="TOGCRtj5Hr8nHxOg1Vfm-2" value="&lt;i style=&quot;border-color: var(--border-color);&quot;&gt;estadoFeliz&lt;/i&gt;&amp;nbsp;:&amp;nbsp;&lt;br&gt;&lt;b style=&quot;border-color: var(--border-color);&quot;&gt;EstadoFeliz&lt;/b&gt;" style="shape=umlLifeline;perimeter=lifelinePerimeter;whiteSpace=wrap;html=1;container=1;dropTarget=0;collapsible=0;recursiveResize=0;outlineConnect=0;portConstraint=eastwest;newEdgeStyle={&quot;curved&quot;:0,&quot;rounded&quot;:0};" vertex="1" parent="1">
          <mxGeometry x="580" y="-300" width="140" height="160" as="geometry" />
        </mxCell>
        <mxCell id="TOGCRtj5Hr8nHxOg1Vfm-3" value="3:&lt;br&gt;new EstadoFeliz()" style="html=1;verticalAlign=bottom;startArrow=none;startFill=0;endArrow=block;curved=0;rounded=0;entryX=0;entryY=0.143;entryDx=0;entryDy=0;entryPerimeter=0;strokeColor=default;" edge="1" parent="1" source="QOd5lDTDU85s1vdmRcAn-8" target="TOGCRtj5Hr8nHxOg1Vfm-2">
          <mxGeometry x="-0.0006" width="60" relative="1" as="geometry">
            <mxPoint x="450" y="-280" as="sourcePoint" />
            <mxPoint x="570" y="-280" as="targetPoint" />
            <mxPoint as="offset" />
          </mxGeometry>
        </mxCell>
        <mxCell id="TOGCRtj5Hr8nHxOg1Vfm-7" value="&lt;i style=&quot;border-color: var(--border-color);&quot;&gt;estadoTriste&lt;/i&gt;&amp;nbsp;:&amp;nbsp;&lt;br&gt;&lt;b style=&quot;border-color: var(--border-color);&quot;&gt;EstadoTriste&lt;/b&gt;" style="shape=umlLifeline;perimeter=lifelinePerimeter;whiteSpace=wrap;html=1;container=1;dropTarget=0;collapsible=0;recursiveResize=0;outlineConnect=0;portConstraint=eastwest;newEdgeStyle={&quot;curved&quot;:0,&quot;rounded&quot;:0};" vertex="1" parent="1">
          <mxGeometry x="572" y="240" width="140" height="170" as="geometry" />
        </mxCell>
        <mxCell id="TOGCRtj5Hr8nHxOg1Vfm-8" value="3:&lt;br&gt;new EstadoTriste()" style="html=1;verticalAlign=bottom;startArrow=none;startFill=0;endArrow=block;curved=0;rounded=0;entryX=0;entryY=0.143;entryDx=0;entryDy=0;entryPerimeter=0;strokeColor=default;" edge="1" parent="1" source="QOd5lDTDU85s1vdmRcAn-54" target="TOGCRtj5Hr8nHxOg1Vfm-7">
          <mxGeometry width="60" relative="1" as="geometry">
            <mxPoint x="522" y="263" as="sourcePoint" />
            <mxPoint x="646" y="260" as="targetPoint" />
          </mxGeometry>
        </mxCell>
        <mxCell id="TOGCRtj5Hr8nHxOg1Vfm-9" value="&lt;h1 style=&quot;font-size: 21px;&quot;&gt;&lt;span style=&quot;background-color: initial; font-size: 21px;&quot;&gt;ENUNCIADO:&amp;nbsp;&lt;/span&gt;&lt;br style=&quot;font-size: 21px;&quot;&gt;&lt;/h1&gt;" style="text;html=1;strokeColor=none;fillColor=none;align=center;verticalAlign=middle;whiteSpace=wrap;rounded=0;fontSize=21;fontStyle=1" vertex="1" parent="1">
          <mxGeometry x="10" y="-560" width="160" height="70" as="geometry" />
        </mxCell>
        <mxCell id="TOGCRtj5Hr8nHxOg1Vfm-10" value="&lt;span style=&quot;border-color: var(--border-color);&quot;&gt;mostrar por pantalla&lt;/span&gt;&lt;i style=&quot;border-color: var(--border-color);&quot;&gt; estadoFeliz&lt;/i&gt;" style="text;html=1;strokeColor=none;fillColor=none;align=center;verticalAlign=middle;whiteSpace=wrap;rounded=0;" vertex="1" parent="1">
          <mxGeometry x="90" y="-250" width="120" height="30" as="geometry" />
        </mxCell>
        <mxCell id="TOGCRtj5Hr8nHxOg1Vfm-11" value="&lt;i style=&quot;border-color: var(--border-color);&quot;&gt;estadoFeliz&lt;/i&gt;&amp;nbsp;:&amp;nbsp;&lt;br style=&quot;border-color: var(--border-color);&quot;&gt;&lt;b style=&quot;border-color: var(--border-color);&quot;&gt;EstadoFeliz&lt;/b&gt;" style="shape=umlLifeline;perimeter=lifelinePerimeter;whiteSpace=wrap;html=1;container=1;dropTarget=0;collapsible=0;recursiveResize=0;outlineConnect=0;portConstraint=eastwest;newEdgeStyle={&quot;curved&quot;:0,&quot;rounded&quot;:0};" vertex="1" parent="1">
          <mxGeometry x="572" y="715" width="140" height="165" as="geometry" />
        </mxCell>
        <mxCell id="TOGCRtj5Hr8nHxOg1Vfm-12" value="3:&lt;br style=&quot;border-color: var(--border-color);&quot;&gt;new EstadoFeliz()" style="html=1;verticalAlign=bottom;startArrow=none;startFill=0;endArrow=block;curved=0;rounded=0;entryX=0;entryY=0.143;entryDx=0;entryDy=0;entryPerimeter=0;strokeColor=default;" edge="1" parent="1" source="QOd5lDTDU85s1vdmRcAn-77" target="TOGCRtj5Hr8nHxOg1Vfm-11">
          <mxGeometry width="60" relative="1" as="geometry">
            <mxPoint x="484" y="720" as="sourcePoint" />
            <mxPoint x="716" y="740" as="targetPoint" />
          </mxGeometry>
        </mxCell>
      </root>
    </mxGraphModel>
  </diagram>
</mxfile>
